<?xml version="1.0" encoding="UTF-8"?>
<svg id="_레이어_2" data-name="레이어 2" xmlns="http://www.w3.org/2000/svg" viewBox="0 0 243.15 149.36">
  <defs>
    <style>
      .cls-1 {
        fill: #f3d55b;
      }

      .cls-2 {
        stroke: #fff;
      }

      .cls-2, .cls-3, .cls-4 {
        fill: none;
        stroke-miterlimit: 10;
      }

      .cls-5 {
        fill: #8260b2;
      }

      .cls-6 {
        fill: #078dd8;
      }

      .cls-3 {
        stroke: #000;
      }

      .cls-4 {
        stroke: #1a1a1a;
      }

      .cls-7 {
        fill: #e74b3c;
      }
    </style>
  </defs>
  <g id="_레이어_1-2" data-name="레이어 1">
    <path class="cls-6" d="M230.32,56.92l-24.73,85.84s-3.23,6.1-15.14,6.1,0,0,0,0H49s11.92,0,0,0-15.14-6.1-15.14-6.1L9.13,56.92h221.19Z"/>
    <path class="cls-3" d="M230.32,56.92l-24.73,85.84s-3.23,6.1-15.14,6.1,0,0,0,0H49s11.92,0,0,0-15.14-6.1-15.14-6.1L9.13,56.92h221.19Z"/>
    <line class="cls-2" x1="18.76" y1="88.25" x2="220.76" y2="88.25"/>
    <line class="cls-2" x1="27.76" y1="118.8" x2="211.76" y2="118.8"/>
    <line class="cls-2" x1="49.65" y1="56.92" x2="58.99" y2="147.86"/>
    <line class="cls-2" x1="83.64" y1="56.92" x2="89.51" y2="147.86"/>
    <line class="cls-2" x1="187.42" y1="56.92" x2="178.18" y2="147.86"/>
    <line class="cls-2" x1="153.48" y1="56.92" x2="147.61" y2="147.86"/>
    <line class="cls-2" x1="119.73" y1="55.92" x2="119.73" y2="147.86"/>
    <path class="cls-5" d="M78.79,33.52C78.79,15.29,99.77.5,125.64.5s46.85,14.79,46.85,33.02"/>
    <path class="cls-4" d="M78.79,33.52C78.79,15.29,99.77.5,125.64.5s46.85,14.79,46.85,33.02"/>
    <path class="cls-1" d="M138.38,46.84c0-18.24,18.79-33.02,41.96-33.02s41.96,14.79,41.96,33.02"/>
    <path class="cls-4" d="M138.38,46.84c0-18.24,18.79-33.02,41.96-33.02s41.96,14.79,41.96,33.02"/>
    <path class="cls-7" d="M31.83,46.84c0-18.24,18.79-33.02,41.96-33.02s41.96,14.79,41.96,33.02"/>
    <path class="cls-4" d="M31.83,46.84c0-18.24,18.79-33.02,41.96-33.02s41.96,14.79,41.96,33.02"/>
    <path class="cls-6" d="M230.65,57.7H12.5c-6.6,0-12-5.4-12-12s5.4-12,12-12h218.15c6.6,0,12,5.4,12,12s-5.4,12-12,12"/>
    <path class="cls-4" d="M230.65,57.7H12.5c-6.6,0-12-5.4-12-12s5.4-12,12-12h218.15c6.6,0,12,5.4,12,12s-5.4,12-12,12Z"/>
  </g>
</svg>