<?xml version="1.0" encoding="UTF-8"?>
<svg id="_레이어_2" data-name="레이어 2" xmlns="http://www.w3.org/2000/svg" viewBox="0 0 144.72 165.56">
  <defs>
    <style>
      .cls-1 {
        fill: #fff;
      }
    </style>
  </defs>
  <g id="_레이어_1-2" data-name="레이어 1">
    <path class="cls-1" d="M72.36,21.07l-6.5,6.95-5.85,6.26-12.35-16.25c.4-6.6,1.3-12.72,5.85-15.38,0,0-1.51,7.8,18.85,18.41"/>
    <polygon class="cls-1" points="78.86 28.02 78.86 162.97 65.86 162.97 65.86 28.02 72.36 21.07 78.86 28.02"/>
    <path class="cls-1" d="M65.86,28.02v134.95c-6.5,0-34.45-4.33-34.45-12.56v-33.58l6.81,3.84-1.93,2.74,11.95,8.18,12.74-19.3-10.99-8.32-18.59-14.07V25.62l16.25-7.58,12.35,16.25,5.85-6.26Z"/>
    <path class="cls-1" d="M72.36,21.07C51.99,10.45,53.51,2.65,53.51,2.65h37.71s1.51,7.8-18.85,18.41"/>
    <path class="cls-1" d="M97.06,18.03l-12.35,16.25-5.85-6.26-6.5-6.95c20.37-10.61,18.85-18.41,18.85-18.41,4.55,2.66,5.45,8.78,5.85,15.38"/>
    <path class="cls-1" d="M113.32,25.62v64.27l-18.59,14.07,11.77,16.7,6.81-3.84v33.6c0,8.23-27.95,12.56-34.45,12.56V28.02l5.85,6.26,12.35-16.25,16.25,7.58Z"/>
    <path class="cls-1" d="M88.3,50.19h14.92v13.19c0,4.89-14.92,4.89-14.92,0v-13.19Z"/>
    <polygon class="cls-1" points="31.4 25.62 31.4 71.93 21.87 82.68 2.59 68.08 31.4 25.62"/>
    <polygon class="cls-1" points="60.98 112.29 48.24 131.6 36.29 123.42 38.22 120.67 49.99 103.98 60.98 112.29"/>
    <polygon class="cls-1" points="49.99 103.97 38.22 120.67 31.4 116.83 2.59 100.58 2.59 68.08 21.87 82.68 31.4 89.9 49.99 103.97"/>
    <polygon class="cls-1" points="142.13 68.06 122.85 82.66 113.32 71.91 113.32 25.62 113.32 25.6 142.13 68.06"/>
    <polygon class="cls-1" points="108.43 123.4 96.48 131.58 83.74 112.27 94.73 103.96 106.5 120.65 108.43 123.4"/>
    <polygon class="cls-1" points="142.13 68.06 142.13 100.56 113.32 116.81 106.5 120.65 94.73 103.96 113.32 89.88 122.85 82.66 142.13 68.06"/>
    <path d="M60.01,36.87s-.09,0-.13,0c-.76-.04-1.47-.41-1.93-1.02l-12.35-16.25c-.37-.49-.56-1.1-.52-1.72.4-6.67,1.31-14.06,7.13-17.46.93-.54,2.13-.6,2.96.07.81.65,1.19,1.59.91,2.58.03.74.78,7,17.49,15.7.72.37,1.22,1.06,1.35,1.86s-.11,1.61-.66,2.2l-12.35,13.21c-.49.52-1.17.82-1.89.82M50.3,17.24l9.91,13.04,7.97-8.53c-9.79-5.54-14.12-10.4-15.97-13.92-1.13,2.28-1.64,5.5-1.91,9.41"/>
    <path d="M78.86,165.56h-13c-1.43,0-2.59-1.16-2.59-2.59V28.02c0-.66.25-1.29.7-1.77l6.5-6.95c.49-.52,1.17-.82,1.89-.82s1.4.3,1.89.82l6.5,6.95c.45.48.7,1.11.7,1.77v134.95c0,1.43-1.16,2.59-2.59,2.59M68.45,160.39h7.83V29.04l-3.91-4.19-3.92,4.19v131.34Z"/>
    <path d="M65.86,165.56c-3.78,0-37.04-3.3-37.04-15.15v-33.58c0-.92.49-1.77,1.28-2.23.79-.46,1.77-.47,2.57-.02l6.81,3.84c.64.36,1.09.97,1.25,1.68s.01,1.46-.41,2.06l-.42.6,7.62,5.22,9.96-15.09-27.64-20.93c-.65-.49-1.03-1.25-1.03-2.06V25.62c0-1.01.58-1.92,1.49-2.34l16.25-7.59c1.1-.51,2.42-.19,3.15.78l10.5,13.81,3.76-4.02c.72-.78,1.85-1.03,2.84-.64.99.39,1.64,1.34,1.64,2.4v134.95c0,1.43-1.16,2.58-2.59,2.58M33.99,124.6v25.8c0,1.26,2.71,4.12,12.88,6.87,5.93,1.6,12.4,2.61,16.4,2.96v-46.76c-.04.08-.09.16-.14.24l-12.74,19.3c-.38.58-.98.98-1.66,1.11-.68.13-1.39-.01-1.96-.4l-11.95-8.18c-.35-.24-.64-.57-.83-.95M33.99,121.26v.97c.05-.1.11-.2.18-.3l.29-.41-.47-.26ZM33.99,88.62l28.55,21.61c.32.24.56.54.74.87V34.57l-1.38,1.47c-.52.56-1.26.85-2.02.82-.76-.04-1.47-.41-1.93-1.02l-11.09-14.59-12.87,6.01v61.35Z"/>
    <path d="M72.36,23.65c-.41,0-.82-.1-1.19-.29C50.15,12.41,50.66,3.78,50.97,2.16c.24-1.21,1.3-2.09,2.54-2.09h37.7c1.24,0,2.3.88,2.54,2.09.32,1.62.82,10.25-20.2,21.2-.37.2-.78.29-1.2.29M56.75,5.24c1.28,2.57,4.98,7.18,15.61,12.9,10.63-5.73,14.33-10.33,15.61-12.9h-31.22Z"/>
    <path d="M84.71,36.87c-.71,0-1.4-.29-1.89-.82l-12.35-13.21c-.55-.59-.8-1.41-.66-2.2.14-.8.64-1.48,1.35-1.86,16.7-8.7,17.46-14.96,17.49-15.7-.29-.99.09-1.93.9-2.58.84-.67,2.04-.61,2.96-.07,5.81,3.4,6.73,10.79,7.13,17.45.04.62-.15,1.23-.52,1.72l-12.35,16.25c-.46.61-1.17.98-1.93,1.02-.04,0-.09,0-.13,0M76.53,21.74l7.97,8.53,9.91-13.04c-.27-3.91-.78-7.13-1.91-9.41-1.86,3.52-6.18,8.38-15.97,13.92"/>
    <path d="M78.86,165.56c-1.43,0-2.59-1.16-2.59-2.59V28.02c0-1.06.65-2.02,1.64-2.41.99-.39,2.11-.14,2.84.64l3.76,4.02,10.5-13.81c.74-.97,2.05-1.29,3.15-.78l16.25,7.58c.91.43,1.49,1.34,1.49,2.34v64.27c0,.81-.38,1.57-1.02,2.06l-16.59,12.56,8.98,12.74,4.78-2.69c.8-.45,1.78-.44,2.57.02.79.46,1.28,1.31,1.28,2.23v33.6c0,11.85-33.27,15.15-37.04,15.15M81.45,34.57v125.67c4-.35,10.48-1.36,16.4-2.96,10.17-2.75,12.88-5.62,12.88-6.87v-29.17l-2.96,1.67c-1.16.65-2.62.32-3.38-.76l-11.77-16.7c-.8-1.14-.56-2.71.55-3.55l17.56-13.29V27.26l-12.87-6.01-11.09,14.59c-.46.61-1.17.98-1.93,1.02-.77.04-1.5-.26-2.02-.82l-1.38-1.47Z"/>
    <path d="M72.36,73.5c-1.43,0-2.59-1.16-2.59-2.59v-1.82c0-1.43,1.16-2.59,2.59-2.59s2.59,1.16,2.59,2.59v1.82c0,1.43-1.16,2.59-2.59,2.59"/>
    <path d="M72.36,49.81c-1.43,0-2.59-1.16-2.59-2.59v-1.82c0-1.43,1.16-2.59,2.59-2.59s2.59,1.16,2.59,2.59v1.82c0,1.43-1.16,2.59-2.59,2.59"/>
    <path d="M72.36,97.18c-1.43,0-2.59-1.16-2.59-2.59v-1.82c0-1.43,1.16-2.59,2.59-2.59s2.59,1.16,2.59,2.59v1.82c0,1.43-1.16,2.59-2.59,2.59"/>
    <path d="M72.36,120.86c-1.43,0-2.59-1.16-2.59-2.59v-1.82c0-1.43,1.16-2.59,2.59-2.59s2.59,1.16,2.59,2.59v1.82c0,1.43-1.16,2.59-2.59,2.59"/>
    <path d="M72.36,144.54c-1.43,0-2.59-1.16-2.59-2.59v-1.82c0-1.43,1.16-2.59,2.59-2.59s2.59,1.16,2.59,2.59v1.82c0,1.43-1.16,2.59-2.59,2.59"/>
    <path d="M95.76,69.63c-6.01,0-10.05-2.51-10.05-6.25v-13.19c0-1.43,1.16-2.59,2.59-2.59h14.92c1.43,0,2.59,1.16,2.59,2.59v13.19c0,3.74-4.04,6.25-10.04,6.25M90.89,63.28c.36.43,2.1,1.18,4.87,1.18s4.51-.75,4.87-1.18v-10.51h-9.75v10.51Z"/>
    <path d="M21.87,85.27c-.55,0-1.09-.17-1.56-.53L1.03,70.14c-1.1-.83-1.35-2.38-.58-3.51L29.27,24.16c.64-.94,1.82-1.35,2.9-1.02,1.08.33,1.83,1.34,1.83,2.47v46.31c0,.63-.23,1.24-.65,1.71l-9.53,10.76c-.51.57-1.22.87-1.94.87M6.1,67.5l15.42,11.68,7.29-8.23v-36.92L6.1,67.5Z"/>
    <path d="M48.24,134.18c-.52,0-1.03-.16-1.46-.45l-11.95-8.18c-.57-.39-.96-.99-1.08-1.67-.12-.68.03-1.38.43-1.95l13.71-19.44c.4-.57,1.02-.96,1.71-1.07.69-.11,1.4.07,1.96.49l10.99,8.32c1.09.82,1.35,2.35.6,3.49l-12.74,19.3c-.38.58-.98.98-1.66,1.11-.17.03-.33.05-.5.05M39.91,122.76l7.62,5.22,9.96-15.09-6.92-5.24-10.65,15.11Z"/>
    <path d="M38.22,123.26c-.43,0-.87-.11-1.27-.33L1.32,102.83c-.81-.46-1.32-1.32-1.32-2.25v-32.5c0-.98.56-1.88,1.43-2.32s1.93-.34,2.71.25l47.4,35.9c1.11.84,1.36,2.41.55,3.55l-11.77,16.7c-.5.71-1.3,1.1-2.11,1.1M5.17,99.07l32.28,18.21,8.99-12.74L5.17,73.28v25.79Z"/>
    <path d="M122.85,85.25c-.72,0-1.43-.3-1.94-.87l-9.53-10.76c-.42-.47-.65-1.08-.65-1.72V25.62c0-1.14.74-2.15,1.83-2.48,1.08-.33,2.26.07,2.9,1.01l28.82,42.46c.77,1.14.52,2.68-.58,3.51l-19.29,14.6c-.46.35-1.01.52-1.56.52M115.9,70.93l7.29,8.23,15.42-11.68-22.71-33.47v36.91Z"/>
    <path d="M96.48,134.16c-.17,0-.33-.02-.5-.05-.68-.13-1.28-.53-1.66-1.11l-12.74-19.3c-.75-1.14-.49-2.66.6-3.49l10.99-8.32c.56-.42,1.27-.6,1.96-.49.69.11,1.31.49,1.71,1.07l13.71,19.44c.4.57.55,1.27.43,1.95-.12.68-.51,1.28-1.08,1.67l-11.95,8.18c-.43.3-.94.45-1.46.45M87.24,112.87l9.96,15.09,7.62-5.22-10.65-15.11-6.92,5.24Z"/>
    <path d="M106.5,123.24c-.82,0-1.61-.39-2.11-1.1l-11.77-16.7c-.8-1.14-.56-2.71.55-3.55l47.4-35.9c.78-.59,1.83-.69,2.71-.25.88.44,1.44,1.33,1.44,2.32v32.5c0,.93-.5,1.79-1.32,2.25l-35.63,20.1c-.4.23-.84.33-1.27.33M98.28,104.51l8.99,12.74,32.28-18.21v-25.79l-41.27,31.25Z"/>
  </g>
</svg>