<?xml version="1.0" encoding="UTF-8"?>
<svg id="_레이어_2" data-name="레이어 2" xmlns="http://www.w3.org/2000/svg" viewBox="0 0 671.96 859.99">
  <defs>
    <style>
      .cls-1 {
        fill: #231f20;
      }

      .cls-2 {
        stroke: #000;
        stroke-miterlimit: 10;
        stroke-width: 7px;
      }

      .cls-2, .cls-3 {
        fill: #fff;
      }
    </style>
  </defs>
  <g id="_레이어_1-2" data-name="레이어 1">
    <g>
      <path class="cls-2" d="M442.49,776.11l-3.63-32.25c0-.98-.14-1.92-.18-2.89,152.95-30.25,221.32-121.15,224.38-125.31,11.32-15.44,4.31-35.05-15.65-43.8-19.96-8.75-45.33-3.34-56.64,12.11-.6.82-61.56,81.86-200.07,99.16-82.74,9.51-118.47-2.08-118.47-2.08-130.57-19.32-188.64-94.8-191.01-97.96-11.32-15.44-36.69-20.86-56.65-12.11-19.96,8.76-26.97,28.36-15.65,43.8,2.97,4.04,67.52,89.88,211.3,122.55M329.57,856.49h-.51"/>
      <g>
        <path class="cls-3" d="M325.49,632.59c-43.71,0-79.28-35.56-79.28-79.28s35.56-79.28,79.28-79.28,79.28,35.57,79.28,79.28-35.57,79.28-79.28,79.28Z"/>
        <path d="M325.49,477.54c41.78,0,75.78,33.99,75.78,75.78s-33.99,75.78-75.78,75.78-75.78-33.99-75.78-75.78,33.99-75.78,75.78-75.78M325.49,470.54c-45.72,0-82.78,37.06-82.78,82.78s37.06,82.78,82.78,82.78,82.78-37.06,82.78-82.78-37.06-82.78-82.78-82.78h0Z"/>
      </g>
      <line class="cls-2" x1="216.46" y1="736.46" x2="209.96" y2="776.61"/>
    </g>
    <g id="Socks">
      <g id="Group_5" data-name="Group 5">
        <path id="Path_4" data-name="Path 4" class="cls-1" d="M145.43,328.74h-54.52c-8.66,0-17.12-1.32-17.12-17.12,0-9.45,7.67-17.11,17.12-17.12h40.26c4.12-6.13,14.82-60.04,15.44-64.44.14-1.2,1.19-2.08,2.39-2.01,2.18,0,14.64,2.52,16.05,2.8,15.39,3.13,15.39,3.3,15.39,5.37,0,.31,0,.88-15.02,67.45l-.07.24-2.96,8.44c-.8,1.83-7.59,16.39-16.98,16.39ZM90.91,298.9c-7.02,0-12.71,5.7-12.72,12.72,0,11.88,4.81,12.72,12.72,12.72h54.51c5.54,0,11.32-10.09,12.91-13.62l2.86-8.14c3.67-16.27,12.6-55.94,14.54-64.9-4.99-1.28-19.91-4.28-25.09-5.06-.99,5.47-3.76,19.44-6.46,31.57-7.71,34.7-10.03,34.7-12.27,34.7h-40.99Z"/>
      </g>
      <g id="Group_6" data-name="Group 6">
        <path id="Path_5" data-name="Path 5" class="cls-1" d="M134.62,326.8l-2.14-.49c.06-.26,6.29-26.42,31.59-26.42v2.2c-23.53,0-29.22,23.7-29.45,24.71Z"/>
      </g>
      <g id="Group_7" data-name="Group 7">
        <rect id="Rectangle_1" data-name="Rectangle 1" class="cls-1" x="158.96" y="232.23" width="2.2" height="27.3" transform="translate(-116.32 344.33) rotate(-76.54)"/>
      </g>
      <g id="Group_8" data-name="Group 8">
        <rect id="Rectangle_2" data-name="Rectangle 2" class="cls-1" x="158.19" y="241.26" width="2.2" height="27.3" transform="translate(-127.35 345.4) rotate(-75.52)"/>
      </g>
    </g>
    <g id="Socks-2" data-name="Socks">
      <g id="Group_5-2" data-name="Group 5">
        <path id="Path_4-2" data-name="Path 4" class="cls-1" d="M521.51,202.31l-37.19-39.87c-5.91-6.34-10.71-13.42.84-24.2,6.92-6.44,17.74-6.06,24.2.84l27.47,29.44c7.29-1.17,54.01-30.11,57.65-32.66.97-.71,2.33-.55,3.11.38,1.49,1.59,8.14,12.42,8.9,13.65,8.22,13.39,8.09,13.51,6.57,14.92-.23.21-.64.6-59.57,35.03l-.23.12-8.19,3.59c-1.88.66-17.16,5.63-23.57-1.24ZM506.15,142.09c-4.8-5.13-12.84-5.41-17.98-.63-8.68,8.1-6.03,12.19-.63,17.98l37.18,39.86c3.78,4.05,15.1,1.4,18.77.15l7.9-3.46c14.4-8.42,49.5-28.94,57.37-33.64-2.47-4.52-10.45-17.47-13.42-21.8-4.68,3.01-16.78,10.51-27.49,16.82-30.63,18.03-32.21,16.33-33.74,14.69l-27.96-29.98Z"/>
      </g>
      <g id="Group_6-2" data-name="Group 6">
        <path id="Path_5-2" data-name="Path 5" class="cls-1" d="M515.56,193.07l-1.11-1.9c.23-.14,23.61-13.42,40.87,5.08l-1.61,1.5c-16.05-17.21-37.26-5.2-38.16-4.68Z"/>
      </g>
      <g id="Group_7-2" data-name="Group 7">
        <rect id="Rectangle_1-2" data-name="Rectangle 1" class="cls-1" x="590.98" y="142.84" width="2.2" height="27.3" transform="translate(-.16 312.38) rotate(-29.55)"/>
      </g>
      <g id="Group_8-2" data-name="Group 8">
        <rect id="Rectangle_2-2" data-name="Rectangle 2" class="cls-1" x="583.86" y="148.43" width="2.2" height="27.3" transform="translate(-6.39 299.04) rotate(-28.53)"/>
      </g>
    </g>
    <g id="Tanktop">
      <g id="Group_104" data-name="Group 104">
        <path id="Path_78" data-name="Path 78" class="cls-1" d="M441.7,446.22h-32.75c-5.27,0-5.27-5.07-5.27-7.51l-.48-66.8c0-.84.46-1.61,1.21-2,.63-.34,15.68-8.79,10.76-40.45-.19-1.22.65-2.36,1.87-2.55.11-.02.23-.03.34-.03h10.4c1.24,0,2.24,1,2.24,2.24,0,.17.04,17.46,7.11,24.54,1.75,1.84,4.19,2.87,6.73,2.84v4.47c-3.73.04-7.31-1.47-9.9-4.16-6.75-6.78-8.08-20.13-8.35-25.46h-5.65c3.6,28.21-8.3,39-12.27,41.77l.47,65.57c-.07,1.01.04,2.03.32,3h0c.16.04.32.05.48.05h32.75v4.48Z"/>
      </g>
      <g id="Group_106" data-name="Group 106">
        <path id="Path_80" data-name="Path 80" class="cls-1" d="M478.74,446.22h-37.04v-4.47h37.04c.17.01.34-.01.51-.07.26-.97.36-1.97.29-2.97l.47-65.58c-3.97-2.76-15.88-13.56-12.27-41.77h-5.65c-.26,5.33-1.59,18.69-8.35,25.46-2.59,2.69-6.17,4.19-9.9,4.16v-4.47c2.54.03,4.98-.99,6.72-2.84,7.06-7.08,7.11-24.37,7.11-24.54,0-1.24,1-2.24,2.24-2.24h10.4c1.24,0,2.24,1,2.24,2.23,0,.12,0,.23-.03.35-4.92,31.65,10.13,40.11,10.77,40.45.74.39,1.2,1.16,1.19,2l-.48,66.81c0,2.42,0,7.49-5.27,7.49Z"/>
      </g>
      <g id="Group_108" data-name="Group 108">
        <rect id="Rectangle_16" data-name="Rectangle 16" class="cls-1" x="405.91" y="437.59" width="75.85" height="2.24"/>
      </g>
      <g id="Group_110" data-name="Group 110">
        <g id="Group_109" data-name="Group 109">
          <path id="Path_82" data-name="Path 82" d="M434.24,383.83c5.41-3.79,12.62-3.79,18.04,0,2.28,1.67,3.62,4.33,3.6,7.16-.08,3.04-1.57,5.87-4.03,7.65,3.44,1.98,5.52,5.69,5.42,9.66.03,3.15-1.39,6.15-3.87,8.11-6.06,4.37-14.23,4.37-20.29,0-2.47-1.96-3.9-4.95-3.87-8.11-.1-3.97,1.98-7.68,5.42-9.66-2.46-1.78-3.95-4.61-4.03-7.65-.02-2.83,1.32-5.49,3.6-7.16ZM438,412.63c3.19,2.11,7.33,2.11,10.51,0,1.58-.95,2.53-2.69,2.46-4.54.07-1.83-.83-3.56-2.36-4.56-3.26-2.15-7.48-2.15-10.74,0-1.54,1-2.43,2.73-2.36,4.56-.06,1.85.89,3.59,2.49,4.54h0ZM438.51,395.56c2.79,2.18,6.71,2.18,9.5,0,1.27-.95,2.02-2.44,2.01-4.03,0-1.58-.74-3.06-2.01-4-2.8-2.15-6.7-2.15-9.5,0-1.27.93-2.02,2.42-2.01,4,0,1.58.74,3.07,2.01,4.02h0Z"/>
        </g>
      </g>
    </g>
    <g id="Tanktop-2" data-name="Tanktop">
      <g id="Group_104-2" data-name="Group 104">
        <path id="Path_78-2" data-name="Path 78" class="cls-1" d="M221.26,162.06l-28.22,16.61c-4.55,2.68-7.12-1.7-8.36-3.8l-34.29-57.32c-.43-.72-.42-1.63.03-2.34.37-.61,9.05-15.53-11.25-40.31-.78-.96-.64-2.36.31-3.15.09-.07.18-.14.28-.2l8.96-5.27c1.06-.63,2.44-.27,3.06.79.09.15,8.9,15.03,18.57,17.54,2.44.7,5.06.35,7.24-.97l2.27,3.86c-3.2,1.92-7.05,2.45-10.64,1.44-9.26-2.41-17.18-13.25-20.11-17.71l-4.87,2.86c17.41,22.48,12.63,37.82,10.61,42.22l33.66,56.27c.45.91,1.06,1.73,1.8,2.43h0c.15-.05.3-.12.44-.2l28.22-16.61,2.27,3.86Z"/>
      </g>
      <g id="Group_106-2" data-name="Group 106">
        <path id="Path_80-2" data-name="Path 80" class="cls-1" d="M253.18,143.27l-31.92,18.79-2.27-3.86,31.92-18.79c.15-.08.29-.19.4-.32-.27-.96-.69-1.88-1.26-2.71l-32.86-56.76c-4.82-.37-20.56-3.63-31.76-29.77l-4.87,2.86c2.48,4.72,8.11,16.92,5.72,26.18-.86,3.63-3.19,6.74-6.42,8.6l-2.27-3.86c2.2-1.26,3.78-3.38,4.36-5.85,2.5-9.68-6.23-24.61-6.32-24.76-.63-1.06-.27-2.44.79-3.06l8.96-5.27c1.06-.63,2.44-.27,3.06.79.06.1.11.2.15.31,11.81,29.78,29.07,29.43,29.8,29.4.83-.03,1.62.39,2.04,1.11l33.47,57.82c1.23,2.08,3.8,6.45-.75,9.13Z"/>
      </g>
      <g id="Group_108-2" data-name="Group 108">
        <rect id="Rectangle_16-2" data-name="Rectangle 16" class="cls-1" x="181.37" y="153.39" width="75.85" height="2.24" transform="translate(-48.07 132.58) rotate(-30.48)"/>
      </g>
      <g id="Group_110-2" data-name="Group 110">
        <g id="Group_109-2" data-name="Group 109">
          <path id="Path_82-2" data-name="Path 82" d="M183.19,112.08c2.74-6.02,8.96-9.67,15.55-9.15,2.81.28,5.32,1.9,6.73,4.34,1.47,2.66,1.63,5.85.41,8.64,3.97-.04,7.65,2.1,9.57,5.58,1.63,2.7,1.92,6,.78,8.95-3.01,6.84-10.05,10.98-17.49,10.29-3.12-.44-5.87-2.29-7.44-5.03-2.1-3.37-2.19-7.62-.23-11.08-3.03-.29-5.74-1.97-7.35-4.55-1.45-2.42-1.65-5.4-.53-7.99ZM201.04,134.99c3.82.2,7.38-1.9,9.06-5.33.88-1.62.81-3.6-.18-5.16-.87-1.61-2.52-2.65-4.35-2.73-3.9-.2-7.54,1.94-9.25,5.45-.82,1.64-.71,3.59.28,5.13.89,1.63,2.59,2.64,4.44,2.65h0ZM192.82,120.02c3.51.47,6.89-1.52,8.19-4.82.61-1.46.5-3.13-.31-4.49-.79-1.36-2.19-2.27-3.76-2.43-3.51-.43-6.86,1.55-8.19,4.82-.62,1.45-.51,3.11.29,4.47.8,1.36,2.2,2.27,3.77,2.44h0Z"/>
        </g>
      </g>
    </g>
    <g id="Hoodie">
      <g id="Group_152" data-name="Group 152">
        <path id="Path_111" data-name="Path 111" class="cls-1" d="M397.84,130.92l-25.62-4.91c-2.38-.46-4.99-2.18-3.91-7.8l13.96-66.74c.26-1.11,1.34-1.82,2.46-1.61,1.12.24,1.85,1.34,1.61,2.46h0s-13.95,66.7-13.95,66.7c-.51,2.68.06,2.79.62,2.89l25.62,4.91c1.13.22,1.87,1.31,1.65,2.43s-1.31,1.87-2.43,1.65Z"/>
      </g>
      <g id="Group_153" data-name="Group 153">
        <path id="Path_112" data-name="Path 112" class="cls-1" d="M353.65,115.31c-.51-.1-1-.26-1.47-.47l-12.7-4.4c-1.64-.47-2.88-1.81-3.23-3.47-.05-1.37.27-2.72.93-3.92l30.97-71.19c5.76-8.77,25.1-8.75,26.54-8.47h0c1.13.22,1.87,1.31,1.65,2.43s-1.31,1.87-2.43,1.65c-2.3-.26-18.05.54-22.21,6.53l-30.73,70.7c-.23.51-.43,1.03-.59,1.57.18.11.38.21.58.3l12.7,4.41c.93.39,1.26.54,2.17-1.54l26.57-58.38c.44-1.06,1.66-1.56,2.72-1.12s1.56,1.66,1.12,2.72c-.02.04-.03.08-.05.12l-26.55,58.35c-1.39,3.27-3.41,4.69-5.98,4.19Z"/>
      </g>
      <g id="Group_154" data-name="Group 154">
        <path id="Path_113" data-name="Path 113" class="cls-1" d="M423.47,135.83l-25.63-4.91c-1.13-.22-1.87-1.31-1.65-2.43s1.31-1.87,2.43-1.65l25.62,4.91c.56.11,1.13.22,1.65-2.49l11.67-67.1c.2-1.13,1.27-1.89,2.41-1.69h0c1.12.18,1.88,1.23,1.7,2.35,0,.02,0,.04-.01.06l-11.68,67.14c-1.07,5.66-4.14,6.29-6.52,5.83Z"/>
      </g>
      <g id="Group_155" data-name="Group 155">
        <path id="Path_114" data-name="Path 114" class="cls-1" d="M444.63,132.75c-2.5-.48-3.87-2.54-3.97-6.16l-3.11-63.99c-.06-1.15.83-2.12,1.98-2.18s2.12.83,2.18,1.98l3.11,64.03c.07,2.31.43,2.3,1.29,2.27l13.73.6c.17,0,.34-.03.5-.06.05-.56.06-1.13.03-1.69l-2.43-77.04c-1.65-7.09-15.98-13.67-18.28-14.29-1.09-.29-1.76-1.39-1.53-2.49.24-1.08,1.29-1.78,2.38-1.58,1.45.28,19.42,7.41,21.53,17.68l.04.35,2.44,77.24c.18,1.36-.02,2.74-.58,3.99-.9,1.38-2.49,2.16-4.14,2.03l-13.73-.6c-.48.02-.97-.01-1.44-.1Z"/>
      </g>
      <g id="Group_156" data-name="Group 156">
        <path id="Path_115" data-name="Path 115" class="cls-1" d="M420.35,96.06c-1.88,8.76-1.47,17.85,1.18,26.4l-41.69-7.99c5.62-6.97,9.36-15.27,10.85-24.1l29.66,5.68M420.74,94.02l-29.66-5.68c-1.13-.22-2.22.52-2.43,1.65-1.45,8.44-5.01,16.38-10.35,23.08-.78.85-.72,2.16.12,2.94.28.26.64.44,1.02.51l41.69,7.99c1.13.22,2.22-.52,2.44-1.65.07-.38.04-.78-.1-1.14-2.49-8.2-2.86-16.89-1.09-25.27.22-1.13-.52-2.22-1.65-2.43h.02Z"/>
      </g>
      <g id="Group_158" data-name="Group 158">
        <path id="Path_117" data-name="Path 117" class="cls-1" d="M408.06,51.77c-.56-.11-.93-.65-.83-1.22.13-.62.3-1.23.51-1.82,1.24-2.67.82-5.82-1.08-8.08-1.21-1.44-1.71-3.35-1.36-5.2.5-1.66,1.64-3.06,3.17-3.87.51-.26,1.14-.06,1.4.45s.06,1.14-.45,1.4h0c-1,.54-1.75,1.44-2.1,2.52-.19,1.25.19,2.52,1.03,3.47,2.28,2.8,2.81,6.64,1.37,9.95-.18.51-.33,1.04-.44,1.57-.11.56-.65.93-1.22.83h0Z"/>
      </g>
      <g id="Group_159" data-name="Group 159">
        <path id="Path_118" data-name="Path 118" class="cls-1" d="M423,53.93c-.06-.01-.12-.03-.18-.05-1.61-.65-2.89-1.92-3.56-3.51-.55-1.8-.25-3.75.8-5.31,2.64-4.6.83-8.77.08-9.26-.53-.19-.79-.78-.6-1.3,0,0,0-.01,0-.02.21-.54.82-.82,1.36-.61,1.09.39,1.76,1.95,2,2.61,1.08,3.2.69,6.72-1.05,9.62-.73,1.04-.97,2.35-.64,3.58.47,1.03,1.31,1.84,2.35,2.27.54.21.8.81.6,1.34-.18.47-.67.74-1.16.65h0Z"/>
      </g>
      <g id="Group_160" data-name="Group 160">
        <path id="Path_119" data-name="Path 119" class="cls-1" d="M439.72,36.24c-1.13-.22-1.87-1.31-1.65-2.43.22-1.13,1.31-1.87,2.43-1.65.33.09.67.07.98-.07.28-.31.45-.69.49-1.1,1.15-6-6.84-24-20.12-26.55s-26.39,11.27-27.53,17.22c-.13.45-.11.93.06,1.37.24.27.58.44.94.47,1.13.22,1.87,1.31,1.65,2.43s-1.31,1.87-2.43,1.65c-1.56-.22-2.95-1.13-3.76-2.48-.69-1.3-.88-2.8-.54-4.23,1.63-8.49,17.65-23.35,32.4-20.52,15.25,2.92,25.06,22.86,23.43,31.41-.2,1.42-.93,2.71-2.04,3.62-1.24.91-2.82,1.23-4.31.86Z"/>
      </g>
      <g id="Group_161" data-name="Group 161">
        <path id="Path_120" data-name="Path 120" class="cls-1" d="M396.38,27.64c-.35-.07-.65-.32-.78-.65-1.08-2.85.18-6.83,3.38-10.63,4.77-5.68,13.59-10.65,22.52-8.94,6.85,1.34,12.72,5.71,15.98,11.87,2.78,4.68,3.39,10.33,1.69,15.5-.22.53-.83.78-1.36.57-.53-.22-.78-.83-.57-1.36,1.47-4.59.89-9.59-1.6-13.72-2.96-5.62-8.31-9.59-14.54-10.82-8.11-1.55-16.15,3.02-20.54,8.23-2.67,3.17-3.83,6.45-3.03,8.56.2.54-.07,1.14-.6,1.34-.18.07-.37.09-.56.05h0Z"/>
      </g>
      <g id="Group_162" data-name="Group 162">
        <path id="Path_121" data-name="Path 121" class="cls-1" d="M417.01,34.91c-8.66-1.51-16.99-4.51-24.62-8.87-.48-.31-.61-.96-.3-1.44.31-.48.95-.61,1.43-.31.19.12,19.64,12.45,48.86,9.78.57-.06,1.08.35,1.15.92.06.57-.35,1.08-.92,1.15-.01,0-.02,0-.04,0-8.53.79-17.14.37-25.56-1.24Z"/>
      </g>
      <g id="Group_165" data-name="Group 165">
        <g id="Group_163" data-name="Group 163">
          <path id="Path_122" data-name="Path 122" d="M407.3,77.69l-8.7-1.67,1.02-5.34c.06-.62.46-1.16,1.03-1.4l5.38-1.56.65-3.38-2.6-.5-.4,2.09-3.04-.58.61-3.16c.21-1.07,1.24-1.78,2.31-1.59l4.8.92c1.08.21,1.79,1.25,1.58,2.33l-.98,5.1c-.06.63-.47,1.17-1.06,1.4l-5.39,1.58-.31,1.63,5.66,1.08-.58,3.04Z"/>
        </g>
        <g id="Group_164" data-name="Group 164">
          <path id="Path_123" data-name="Path 123" d="M416.86,79.52l-3.01-.58.45-2.33-4.81-.92.48-2.5,5.98-10.23,3.95.76-2,10.44,1.23.23-.58,3.04-1.23-.23-.45,2.32ZM414.87,73.58l.73-3.8.52-1.91-.1-.02-2.89,5.39,1.75.33Z"/>
        </g>
      </g>
    </g>
    <path d="M203.1,328.86c-.19.33-1.24,8.99-1.62,13.09-1.6,18.3-1.85,48.44-.52,65.27.73,8.98.93,10.35,1.7,10.91.87.64,5.39,2.12,8.73,2.8,7.39,1.56,14.1,2.02,23.6,1.65,7.78-.33,12.12-.88,16.47-2.14,3.35-.96,3.44-1.09,3.47-5.03.11-7.97,1.56-15.68,3.06-16.02,1.36-.33,2.97,7.27,3.32,15.7.08,1.96.26,3.77.42,4.02.32.53,1.83.99,5.04,1.51,4.96.81,6.64.87,15.58.49,7.41-.34,9.34-.49,13.03-1.09,8.83-1.49,15.65-3.37,19.2-5.31,2.87-1.56,2.77-1.04,2.03-10.87-1.58-21.65-3.27-37.09-6.08-55.38-1.75-11.51-3.68-22.98-3.95-23.57l-.27-.54-51.55,2.16c-28.36,1.19-51.63,2.24-51.67,2.34ZM262.17,334.17l.17,3.98-28.21,1.18-28.21,1.18-.03-.82c-.04-.97.42-6.02.59-6.7.13-.48.83-.51,27.85-1.64l27.69-1.16.17,3.98ZM303.41,330.2c.16.89.46,2.65.69,3.88l.4,2.3-19.09.8-19.09.8-.17-3.98-.17-3.98,18.6-.73,18.57-.7.27,1.61ZM290.62,342.86c1.73,11.06,8.21,18.83,18.17,21.8.55.15.71.99,1.62,9.44,1.65,15.47,3.41,36.04,3.1,36.38-.36.39-3.59,1.64-6.42,2.51-3.91,1.19-8.87,2.21-14.96,3.09-4.45.66-6.17.78-11.91.92-6.27.14-8.46.03-13.47-.63l-1.55-.21-.35-4.74c-.69-9.38-2.4-14.57-5.22-15.77-1.39-.59-3.35-.28-4.5.74-2.48,2.15-4.01,7.66-4.38,15.57-.24,5.06-.17,4.81-1.23,5.16-1.4.46-6.25,1.21-9.82,1.53-4.12.37-13.31.31-18.21-.11-7.4-.64-15.22-2.37-15.68-3.47-.5-1.13-1.38-13.86-1.58-22.32-.22-9.3-.27-20.08-.14-21.68.11-1,.13-1.03,1.99-1.88,5.06-2.33,8.94-5.98,11.64-10.92,1.85-3.41,3.19-8.35,3.3-12.22l.06-2.19,20.36-.85,20.36-.85.68,18.08c.64,17.68.64,18.15.2,20.06-.8,3.47-2.21,5-4.69,5.1-1.64.07-2.39.62-2.25,1.64.14,1.04,1.12,1.65,2.84,1.75,2.2.13,3.52-.42,5.07-2.1,2.17-2.38,3.23-5.51,3.55-10.38.07-1.32-.15-9.56-.53-18.6l-.68-16.21,12.16-.51,12.13-.51.37,2.4ZM217.22,346.07c-.12,2.5-.82,6.06-1.6,8.04-1.15,2.91-3.74,6.33-6.18,8.18-1.16.87-4.76,2.94-5.16,2.95q-.25.01.43-12.42l.45-8.29,6.09-.26,6.07-.25-.09,2.05ZM305.12,340.54c.34.51,3.4,20.5,3.16,20.76-.17.18-4.06-1.75-5.39-2.71-5.11-3.6-8.25-9.02-8.89-15.36l-.25-2.41,5.62-.24c3.08-.13,5.67-.14,5.75-.04Z"/>
    <g>
      <path d="M298.02,170.21c-.34.16-2.56,1.76-4.94,3.55l-4.34,3.22-6.23,2.22c-3.79,1.36-6.72,2.53-7.48,3.02-2.66,1.7-4.83,4.08-7.4,8.06-8,12.43-15.36,35.51-21.87,68.62-1.06,5.52-1.06,5.88.37,6.44,2.88,1.17,15.92,5.64,16.3,5.6.8-.1,1.2-.81,2.37-3.99.61-1.65,1.12-3,1.15-3.02.55-.29,1.33-.37,2.36-.24,1.61.21,2.82.94,5.29,3.25,4.04,3.75,11.39,7.89,18.31,10.3,3.05,1.06,8.75,1.97,12.22,1.91,7.69-.1,15.6-2.12,22.13-5.65,1.3-.71,2.92-1.42,3.61-1.56,1.25-.27,3.63-.1,4.4.34.27.15.64,1.29,1.2,3.77,1.04,4.49,1.16,4.64,3.62,4.52.95-.04,4.61-.4,8.14-.81,5.88-.69,6.45-.79,7.1-1.32.81-.71.77-.44,1.25-7.7,1.27-19.68,1.04-39.06-.63-52.72-1.52-12.54-4.13-21-7.93-25.86-1.24-1.57-1.73-1.95-7.06-5.55l-5.73-3.87-3.23-4.45c-1.87-2.57-3.44-4.52-3.76-4.65-.62-.24-1.57.18-1.92.83-.14.25-.67,1.55-1.18,2.9-3.45,9.15-9.53,14.05-15.06,12.16-4.76-1.61-7.92-8.12-8.85-18.14-.04-.39-.3-.8-.67-1.05-.74-.52-.83-.53-1.55-.15ZM297.12,177.82c.57,2.9,1.36,5.34,2.34,7.37,1,2.01,3.28,4.75,4.79,5.73.68.45,1.29.84,1.32.89.08.1-4.79,4.8-5.14,4.96-.12.05-.7-.31-1.27-.81-3.56-3.08-6.79-9.06-7.85-14.49l-.37-1.82,2.81-2.18c1.54-1.2,2.83-2.15,2.85-2.13.02.02.26,1.15.51,2.49ZM330.66,186.42c-1.77,3.66-4.91,7.57-8.03,10.02-1.72,1.37-4.03,2.72-4.51,2.66-.18-.02-4-6.12-3.88-6.2.05-.02.77-.26,1.62-.56,4.01-1.33,7.69-5.35,10.34-11.25l.88-1.95,2.18,2.81,2.2,2.84-.79,1.63ZM337.49,188.99c2.82,1.82,3.43,2.3,3.3,2.62-.07.19-.54,1.21-.99,2.28-1.9,4.32-2.4,6.34-3.24,12.94-.57,4.62-.74,6.73-.71,8.78.09,4.61.46,8.23,1.17,11.82l.68,3.45-1.96,14.34c-1.07,7.88-2.2,16.2-2.49,18.47l-.53,4.13-1.9.45c-2.43.59-4.16,1.31-7.06,2.92-2.76,1.56-8.38,3.56-11.78,4.2-3.06.6-6.58.87-9.09.71l-1.96-.12,5.16-40.51,5.18-40.51.81,1.2c.46.64,1.54,2.33,2.4,3.72.83,1.39,1.73,2.6,1.97,2.7,1.06.47,4.53-1,7.47-3.11,4.03-2.94,7.41-7.07,9.46-11.53.31-.66.58-1.21.6-1.2.02,0,1.6,1.01,3.51,2.24ZM287.97,183.41c.82,4.1,2.49,7.93,4.87,11.15,2.55,3.44,6.43,6.83,7.63,6.7.32-.05,1.85-1.29,3.7-3.01l3.18-2.96-1.7,14.42c-.94,7.94-3.14,26.09-4.91,40.32l-3.19,25.93-1.04-.13c-1.59-.2-5.41-1.27-7.35-2.04-5.47-2.18-10.8-5.78-14.22-9.64-1.63-1.82-3.1-2.84-4.91-3.43-.73-.23-1.36-.44-1.4-.47s.91-8.37,2.09-18.52l2.15-18.49.73-1.32c4.35-7.93,7.37-20.72,7.01-29.7-.08-2.52-.48-6.08-.81-7.4-.15-.56-.08-.62,3.74-1.9,2.16-.74,3.96-1.29,4-1.24.04.05.21.83.41,1.76ZM277.36,188.95c1.09,8.76-1.51,21.43-6.34,30.96l-1.17,2.3-2.2,17.25-2.22,17.25-2.04,5.13c-1.99,4.91-2.09,5.12-2.57,4.99-1.23-.36-12.1-4.23-12.19-4.38-.27-.35,3.29-17.23,5.51-26.03,6.72-26.91,14.26-44.63,21.35-50.31l1.17-.93.21.81c.12.44.33,1.77.48,2.96ZM345.42,195.66c5.22,7.51,7.83,24.7,7.79,51.52,0,8.84-.79,28.63-1.13,28.84-.03.04-2.7.4-5.9.82-3.2.42-5.98.79-6.19.83-.3.03-.67-1.12-1.81-5.73l-1.42-5.77,2.38-17.27,2.38-17.3-.55-2.54c-2.38-11.12-1.41-25.28,2.27-33.02,1.01-2.14.94-2.12,2.18-.37Z"/>
      <path d="M314.97,214.64c-.51.32-.68.59-.77,1.25s.01.97.43,1.4c.52.51.69.56,8.1,1.44,8.56,1.02,8.38,1.02,8.59-.66.21-1.68.39-1.63-8.15-2.79-7.39-1.01-7.57-1.01-8.2-.64Z"/>
    </g>
    <path d="M408.5,207.47c-2.12,1.4-4.47,4.54-6,7.92-1.94,4.34-3.03,8.44-4.47,16.9-2.12,12.37-5.02,25.58-9.16,41.83-.98,3.79-1.48,6.15-1.4,6.5.26,1.03.81,1.18,7.33,1.85,8.33.85,7.44.61,8.2,2.22,2.27,4.82,7.28,7.37,14.5,7.37,3.4.02,5.63-.44,7.96-1.57l1.68-.83,2.62,1.31c1.44.7,3.47,1.53,4.49,1.81,6.46,1.83,14.22,1,20.35-2.16l1.94-1,.59.41c2.09,1.55,5.02,2.46,8.4,2.59,2.33.11,2.86.04,4.91-.46,5.02-1.26,8.77-3.88,11.38-7.85.46-.72.87-1.33.89-1.35.04-.04,2.75-.52,6.04-1.07,7.81-1.29,7.17-1.13,7.54-1.92.33-.68.26-.96-1.09-6.37-4.84-19.37-7.94-33.63-9.51-43.94-1.85-12.28-4.62-18.25-10.14-21.92l-1.79-1.2h-63.92l-1.35.92ZM474.14,211.18c2.49,1.66,4.62,4.86,6,8.96.85,2.57,1.55,5.89,2.29,11.06,1.37,9.55,5.21,26.63,9.57,42.74.61,2.2,1.05,4.06,1,4.12-.22.2-10.23,1.77-10.36,1.61-.07-.09-.59-2.09-1.16-4.43-5.43-22.88-11.1-46.32-11.3-46.75-.35-.76-1.33-1.13-2.14-.79-1.46.59-1.77-.98,5.17,27.7l6.32,26.19-.57,1.03c-.31.57-1.31,1.77-2.2,2.68-2.62,2.64-6,4.03-10.27,4.27-3.34.17-6.67-.79-8.68-2.49l-.7-.61-1.59-20.76c-1.13-14.68-1.68-20.85-1.88-21.09-.41-.5-1.88-.46-2.42.09-.24.24-.48.65-.54.92-.07.28.57,9.42,1.4,20.3.85,10.88,1.55,20.06,1.55,20.39,0,1.05-3.29,2.97-6.93,4.03-1.48.41-2.18.48-6.04.48s-4.54-.04-6.11-.5c-2.12-.61-4.19-1.61-5.25-2.53l-.79-.68.79-18.65c.43-10.25.85-19.54.91-20.61.11-1.81.09-2.01-.35-2.57-.41-.52-.61-.61-1.37-.54-1.74.13-1.59-1.29-2.12,20.56-.24,10.69-.5,19.91-.57,20.52-.11,1.05-.15,1.13-1.24,1.79-2.12,1.26-3.45,1.61-6.7,1.72-4.67.15-7.94-.81-10.29-3.08-1.09-1.05-2.36-3.03-2.36-3.71,0-.24,2.12-11.65,4.71-25.36,2.62-13.83,4.64-25.16,4.58-25.45-.15-.63-1.48-1.31-2.22-1.13-.28.09-.65.41-.83.74-.15.33-2.33,11.38-4.82,24.58-2.49,13.19-4.58,24.05-4.64,24.12-.15.15-10.49-.81-10.66-.98-.07-.07.92-4.3,2.2-9.44,3.77-15.35,6.13-26.15,7.89-36.37,1.4-8.11,2.07-10.75,3.73-14.72,1.22-2.88,2.42-4.75,4.21-6.61l1.66-1.68h61.76l1.35.92Z"/>
  </g>
</svg>