<?xml version="1.0" encoding="UTF-8"?>
<svg id="_레이어_2" data-name="레이어 2" xmlns="http://www.w3.org/2000/svg" viewBox="0 0 61.7 45.9">
  <g id="_레이어_1-2" data-name="레이어 1">
    <g>
      <circle cx="19.18" cy="29.02" r="3.53"/>
      <path d="M30.85,25.49c-1.95,0-3.53,1.58-3.53,3.53s1.58,3.53,3.53,3.53,3.53-1.58,3.53-3.53-1.58-3.53-3.53-3.53Z"/>
      <path d="M42.52,25.49c-1.95,0-3.53,1.58-3.53,3.53s1.58,3.53,3.53,3.53,3.53-1.58,3.53-3.53-1.58-3.53-3.53-3.53Z"/>
      <path d="M60.35.06c-.96-.25-1.92.34-2.16,1.29l-1.76,7c-1.2-.61-2.48-.9-3.96-.9-3.37,0-5.14,1.53-6.57,2.76-1.28,1.1-2.2,1.9-4.25,1.9s-2.96-.8-4.24-1.9c-1.43-1.23-3.2-2.76-6.56-2.76s-5.13,1.53-6.56,2.76c-1.28,1.1-2.2,1.9-4.24,1.9s-2.97-.8-4.25-1.9c-1.43-1.23-3.2-2.76-6.57-2.76-1.48,0-2.76.29-3.96.9L3.5,1.35C3.26.4,2.29-.19,1.34.06.39.3-.19,1.26.05,2.22l10.67,42.34c.2.79.91,1.34,1.72,1.34h36.8c.81,0,1.52-.55,1.72-1.34L61.64,2.22c.24-.95-.34-1.92-1.29-2.16ZM47.86,42.35H13.83L6.17,11.92s.09-.04.13-.07c.63-.42,1.46-.85,2.93-.85,2.05,0,2.97.8,4.25,1.9,1.43,1.23,3.2,2.76,6.57,2.76s5.13-1.53,6.56-2.76c1.28-1.1,2.2-1.9,4.24-1.9s2.96.8,4.24,1.9c1.43,1.23,3.2,2.76,6.56,2.76s5.14-1.53,6.57-2.76c1.28-1.1,2.2-1.9,4.25-1.9,1.47,0,2.3.43,2.93.85.04.03.09.05.13.07l-7.67,30.42Z"/>
    </g>
  </g>
</svg>