<?xml version="1.0" encoding="UTF-8"?>
<svg id="_레이어_2" data-name="레이어 2" xmlns="http://www.w3.org/2000/svg" viewBox="0 0 61.7 45.9">
  <g id="_레이어_1-2" data-name="레이어 1">
    <path d="M60.35.06c-.95-.25-1.92.34-2.16,1.29l-1.76,7c-1.2-.61-2.49-.9-3.96-.9-3.37,0-5.14,1.53-6.57,2.76-.3.26-.59.5-.88.73v-2.75c0-.17-.03-.34-.09-.49l-2.48-6.69c-.27-.74-1.09-1.11-1.83-.84-.74.27-1.11,1.09-.84,1.83l2.39,6.45.02,19.73c0,.59-.48,1.07-1.07,1.07s-1.07-.48-1.08-1.06v-6.67c0-.79-.65-1.42-1.43-1.42h0c-.78,0-1.42.64-1.42,1.42v6.66s0,.01,0,.02v4.98c0,.59-.48,1.07-1.07,1.07s-1.07-.48-1.08-1.07v-11.66c-.01-.69-.5-1.26-1.15-1.39-.09-.02-.19-.03-.29-.03h0c-.78,0-1.42.64-1.42,1.42v11.66s.01,0,.01,0v2.49c0,.29-.11.56-.31.76-.2.2-.47.31-.76.31-.29.05-.55-.1-.76-.31-.2-.2-.32-.48-.32-.76l-.02-14.15c0-.79-.64-1.42-1.42-1.42h0c-.78,0-1.42.64-1.42,1.42h0s0,.12,0,.12v11.54c.01.28-.1.56-.3.76-.2.2-.63.29-.77.31-.28,0-.55-.11-.75-.31-.2-.2-.32-.47-.32-.76l-.02-16.69,1.99-2.51c.49-.62.39-1.51-.23-2-.62-.49-1.51-.38-2,.23l-5.58,7.05c-.26.4-.64.68-1.07.8-.39.11-.78.05-1.09-.16-.31-.2-.52-.53-.59-.93-.08-.44.02-.9.35-1.42L24.88,2.15c.36-.7.1-1.56-.6-1.92-.69-.37-1.55-.09-1.92.6l-5.39,10.32c-.41-.29-.79-.62-1.16-.94-1.43-1.23-3.2-2.76-6.57-2.76-1.48,0-2.76.29-3.96.9L3.5,1.35C3.26.4,2.3-.18,1.34.06.39.3-.19,1.26.05,2.22l10.67,42.34c.2.79.91,1.34,1.72,1.34h36.8c.81,0,1.52-.55,1.72-1.34L61.64,2.22c.24-.95-.34-1.92-1.29-2.16ZM47.86,42.34H13.83L6.17,11.92s.09-.04.13-.07c.63-.42,1.47-.85,2.93-.85,2.05,0,2.97.8,4.25,1.9.56.48,1.14.97,1.83,1.41l-.94,1.81c-.65,1-.9,2.19-.7,3.34.21,1.19.86,2.19,1.85,2.83.68.44,1.45.66,2.25.66.36,0,.73-.05,1.09-.14,1.13-.29,2.11-1,2.68-1.89l.67-.85v13.11c.02,1.05.42,2.03,1.17,2.77.74.74,1.72,1.14,2.76,1.14h.01c.44,0,.87-.08,1.27-.21.19.58.51,1.12.96,1.56.74.74,1.72,1.14,2.76,1.14h.01c1.05,0,2.03-.41,2.77-1.15.45-.45.77-.98.96-1.57.4.14.82.21,1.27.21,2.16,0,3.92-1.77,3.91-3.92v-1.23c.34.1.7.15,1.07.15,2.16,0,3.92-1.77,3.91-3.92l-.02-13.15c.1-.03.2-.06.3-.1,1.2-.55,2.1-1.32,2.89-2,1.28-1.1,2.21-1.9,4.25-1.9,1.47,0,2.31.43,2.93.85.04.03.09.04.13.07l-7.67,30.42Z"/>
  </g>
</svg>