<?xml version="1.0" encoding="UTF-8"?>
<svg id="_레이어_2" data-name="레이어 2" xmlns="http://www.w3.org/2000/svg" viewBox="0 0 74.5 45.9">
  <g id="_레이어_1-2" data-name="레이어 1">
    <g>
      <path d="M73.54,39.91l-32.45-16.96L73.54,5.99c.87-.45,1.21-1.53.75-2.4-.45-.87-1.53-1.2-2.4-.75l-34.65,18.11L2.6,2.83c-.87-.44-1.94-.12-2.4.75-.45.87-.12,1.94.75,2.4l32.45,16.96L.96,39.91c-.87.45-1.21,1.53-.75,2.4.32.61.94.96,1.58.96.28,0,.56-.07.82-.2l34.65-18.11,34.65,18.11c.26.14.55.2.82.2.64,0,1.26-.35,1.58-.96.45-.87.12-1.94-.75-2.4Z"/>
      <path d="M56.12,45.9H8.94c-.59,0-1.15-.3-1.48-.79-.33-.49-.39-1.12-.16-1.67l7.23-17.38c1.07-2.55,3.54-4.2,6.3-4.2h37.29l-1.13-15.28c-.13-1.69-1.55-3.02-3.25-3.02h-29.31c-.98,0-1.78-.8-1.78-1.78s.8-1.78,1.78-1.78h29.31c3.55,0,6.54,2.77,6.8,6.31l2.39,32.26c.14,1.89-.52,3.76-1.81,5.14-1.29,1.38-3.1,2.18-4.99,2.18ZM11.61,42.34h44.51c.92,0,1.76-.37,2.39-1.04.62-.67.93-1.55.86-2.46l-.99-13.42H20.83c-1.32,0-2.5.79-3.01,2.01l-6.2,14.91Z"/>
    </g>
  </g>
</svg>