<?xml version="1.0" encoding="UTF-8"?>
<svg id="_레이어_2" data-name="레이어 2" xmlns="http://www.w3.org/2000/svg" viewBox="0 0 55.77 61.89">
  <g id="_레이어_1-2" data-name="레이어 1">
    <g>
      <path d="M48.95,45.9H1.78c-.59,0-1.15-.3-1.48-.79-.33-.49-.39-1.12-.16-1.67l7.23-17.38c1.06-2.55,3.53-4.2,6.3-4.2h37.29l-1.13-15.28c-.13-1.69-1.56-3.02-3.25-3.02h-29.31c-.98,0-1.78-.8-1.78-1.78s.8-1.78,1.78-1.78h29.31c3.55,0,6.54,2.77,6.8,6.31l2.39,32.26c.14,1.89-.52,3.76-1.8,5.14-1.29,1.39-3.11,2.18-5,2.18ZM4.45,42.34h44.51c.92,0,1.77-.37,2.39-1.04.62-.67.93-1.55.86-2.46l-.99-13.42H13.66c-1.32,0-2.5.79-3.01,2.01l-6.21,14.91Z"/>
      <g>
        <path d="M30.08,61.89c-.99,0-1.79-.8-1.79-1.79v-9.97c0-.99.8-1.79,1.79-1.79s1.79.8,1.79,1.79v9.97c0,.99-.8,1.79-1.79,1.79Z"/>
        <path d="M11.44,58.97c-.46,0-.92-.18-1.27-.53-.7-.7-.7-1.83,0-2.53l7.05-7.05c.7-.7,1.83-.7,2.53,0s.7,1.83,0,2.53l-7.05,7.05c-.35.35-.81.53-1.27.53Z"/>
        <path d="M48.72,58.97c-.46,0-.92-.18-1.27-.53l-7.05-7.05c-.7-.7-.7-1.83,0-2.53.7-.7,1.83-.7,2.53,0l7.05,7.05c.7.7.7,1.83,0,2.53-.35.35-.81.53-1.27.53Z"/>
      </g>
    </g>
  </g>
</svg>