<?xml version="1.0" encoding="UTF-8"?>
<svg id="_레이어_2" data-name="레이어 2" xmlns="http://www.w3.org/2000/svg" viewBox="0 0 55.77 45.9">
  <g id="_레이어_1-2" data-name="레이어 1">
    <g>
      <path d="M24.24,30.35c-1.95,0-3.53,1.58-3.53,3.53s1.58,3.53,3.53,3.53,3.53-1.58,3.53-3.53-1.58-3.53-3.53-3.53Z"/>
      <circle cx="35.92" cy="33.88" r="3.53"/>
      <path d="M55.75,38.57l-2.39-32.26c-.26-3.54-3.25-6.31-6.8-6.31h-29.31c-.98,0-1.78.8-1.78,1.78s.8,1.78,1.78,1.78h29.31c1.7,0,3.13,1.33,3.25,3.02l1.13,15.28H13.66c-2.76,0-5.23,1.65-6.3,4.2L.14,43.43c-.23.55-.17,1.18.16,1.67.33.49.89.79,1.48.79h47.17c1.89,0,3.71-.8,5-2.18,1.28-1.39,1.94-3.26,1.8-5.14ZM51.34,41.3c-.63.67-1.48,1.04-2.39,1.04H4.45l6.21-14.91c.51-1.22,1.69-2.01,3.01-2.01h37.55l.99,13.42c.07.92-.24,1.79-.86,2.46Z"/>
    </g>
  </g>
</svg>