<?xml version="1.0" encoding="UTF-8"?>
<svg id="_레이어_2" data-name="레이어 2" xmlns="http://www.w3.org/2000/svg" viewBox="0 0 45.9 54.31">
  <g id="_레이어_1-2" data-name="레이어 1">
    <g>
      <g>
        <path d="M11.28,19.42c-1.95,0-3.53,1.58-3.53,3.53s1.58,3.53,3.53,3.53,3.53-1.58,3.53-3.53-1.58-3.53-3.53-3.53Z"/>
        <path d="M22.95,19.42c-1.95,0-3.53,1.58-3.53,3.53s1.58,3.53,3.53,3.53,3.53-1.58,3.53-3.53-1.58-3.53-3.53-3.53Z"/>
        <path d="M31.09,22.95c0,1.95,1.58,3.53,3.53,3.53s3.53-1.58,3.53-3.53-1.58-3.53-3.53-3.53-3.53,1.58-3.53,3.53Z"/>
        <path d="M44.12,0H1.78C.8,0,0,.8,0,1.78v42.34c0,.98.8,1.78,1.78,1.78h42.34c.98,0,1.78-.8,1.78-1.78V1.78c0-.98-.8-1.78-1.78-1.78ZM42.34,13.32c-2.1-4.22-5.54-7.66-9.77-9.77h9.77v9.77ZM41.05,22.95c0,9.98-8.12,18.1-18.1,18.1S4.85,32.93,4.85,22.95,12.97,4.85,22.95,4.85s18.1,8.12,18.1,18.1ZM13.32,3.56c-4.22,2.1-7.66,5.55-9.77,9.77V3.56h9.77ZM3.56,32.57c2.1,4.22,5.54,7.66,9.77,9.77H3.56v-9.77ZM32.57,42.34c4.22-2.1,7.66-5.55,9.77-9.77v9.77h-9.77Z"/>
      </g>
      <path d="M44.12,50.75H1.78c-.98,0-1.78.8-1.78,1.78s.8,1.78,1.78,1.78h42.34c.98,0,1.78-.8,1.78-1.78s-.8-1.78-1.78-1.78Z"/>
    </g>
  </g>
</svg>