<?xml version="1.0" encoding="UTF-8"?>
<svg id="_레이어_2" data-name="레이어 2" xmlns="http://www.w3.org/2000/svg" viewBox="0 0 45.9 45.9">
  <g id="_레이어_1-2" data-name="레이어 1">
    <g>
      <path d="M44.12,0H1.78C.8,0,0,.8,0,1.78v42.34c0,.98.8,1.78,1.78,1.78h42.34c.98,0,1.78-.8,1.78-1.78V1.78c0-.98-.8-1.78-1.78-1.78ZM13.03,9.6c-.21-.08-.43-.13-.66-.13-.98,0-1.78.8-1.78,1.78v.79l-7.03,7.03v-5.02L14.05,3.56h5.02l-6.05,6.04ZM9.02,3.56l-5.46,5.46V3.56h5.46ZM42.34,42.34H3.56v-18.24l7.03-7.03v17.57c0,.98.8,1.78,1.78,1.78s1.78-.8,1.78-1.78V13.52L24.1,3.56h18.24v38.78Z"/>
      <path d="M22.95,9.47c-.98,0-1.78.8-1.78,1.78v23.4c0,.98.8,1.78,1.78,1.78s1.78-.8,1.78-1.78V11.25c0-.98-.8-1.78-1.78-1.78Z"/>
      <path d="M33.53,36.42c.98,0,1.78-.8,1.78-1.78V11.25c0-.98-.8-1.78-1.78-1.78s-1.78.8-1.78,1.78v23.4c0,.98.8,1.78,1.78,1.78Z"/>
    </g>
  </g>
</svg>