<?xml version="1.0" encoding="UTF-8"?>
<svg id="_레이어_2" data-name="레이어 2" xmlns="http://www.w3.org/2000/svg" viewBox="0 0 45.9 45.9">
  <g id="_레이어_1-2" data-name="레이어 1">
    <path d="M44.12,0H1.78C.8,0,0,.8,0,1.78v42.34c0,.98.8,1.78,1.78,1.78h42.34c.98,0,1.78-.8,1.78-1.78V1.78c0-.98-.8-1.78-1.78-1.78ZM3.56,14.04l2.07-2.07c.92.72,1.94,1.39,3.04,1.98l-5.11,5.11v-5.03ZM5.52,7.05c-.86-1.08-1.46-2.26-1.75-3.49h5.25l-3.5,3.49ZM8.1,9.5l5.95-5.95h5.02l-7.81,7.81c-1.16-.55-2.22-1.17-3.16-1.86ZM24.1,3.56h18.03c-1.39,5.79-9.46,10.25-19.18,10.25-2.86,0-5.57-.39-8.02-1.08L24.1,3.56ZM3.56,42.34v-18.24l8.58-8.58c3.22,1.17,6.9,1.84,10.81,1.84,8.15,0,15.32-2.9,19.39-7.27v32.24H3.56Z"/>
  </g>
</svg>