<?xml version="1.0" encoding="UTF-8"?>
<svg id="_레이어_2" data-name="레이어 2" xmlns="http://www.w3.org/2000/svg" viewBox="0 0 58.36 58.35">
  <g id="_레이어_1-2" data-name="레이어 1">
    <g>
      <path d="M51.64,19.19c-8.95-8.95-23.51-8.95-32.45,0-4.33,4.33-6.72,10.1-6.72,16.23s2.39,11.89,6.72,16.23c4.47,4.47,10.35,6.71,16.23,6.71s11.75-2.24,16.23-6.71c4.33-4.33,6.72-10.1,6.72-16.23s-2.39-11.89-6.72-16.23ZM49.13,49.13c-7.56,7.56-19.87,7.56-27.42,0-3.66-3.66-5.68-8.53-5.68-13.71s2.02-10.05,5.68-13.71c3.78-3.78,8.74-5.67,13.71-5.67s9.93,1.89,13.71,5.67c3.66,3.66,5.68,8.53,5.68,13.71s-2.02,10.05-5.68,13.71Z"/>
      <path d="M28.47.52c-.69-.69-1.82-.69-2.51,0L.52,25.96c-.69.69-.69,1.82,0,2.51.35.35.8.52,1.26.52s.91-.17,1.26-.52L28.47,3.04c.69-.69.69-1.82,0-2.51Z"/>
    </g>
  </g>
</svg>