<?xml version="1.0" encoding="UTF-8"?>
<svg id="_레이어_2" data-name="레이어 2" xmlns="http://www.w3.org/2000/svg" viewBox="0 0 58.35 58.35">
  <g id="_레이어_1-2" data-name="레이어 1">
    <g>
      <path d="M39.16,6.71C30.22-2.23,15.66-2.24,6.71,6.71-2.24,15.66-2.24,30.22,6.71,39.16c4.47,4.47,10.35,6.71,16.23,6.71s11.76-2.24,16.23-6.71c8.94-8.95,8.94-23.51,0-32.45ZM9.22,36.65c-7.56-7.56-7.56-19.87,0-27.43,7.56-7.55,19.86-7.56,27.43,0,7.56,7.56,7.56,19.87,0,27.43-7.56,7.55-19.86,7.56-27.43,0Z"/>
      <path d="M57.83,29.88c-.69-.69-1.82-.69-2.51,0l-25.44,25.44c-.69.69-.69,1.82,0,2.51.35.35.8.52,1.26.52s.91-.17,1.26-.52l25.44-25.44c.69-.69.69-1.82,0-2.51Z"/>
    </g>
  </g>
</svg>