<?xml version="1.0" encoding="UTF-8"?>
<svg id="_레이어_2" data-name="레이어 2" xmlns="http://www.w3.org/2000/svg" viewBox="0 0 45.9 62.72">
  <g id="_레이어_1-2" data-name="레이어 1">
    <g>
      <g>
        <path d="M22.95,0C10.29,0,0,10.29,0,22.95s10.29,22.95,22.95,22.95,22.95-10.29,22.95-22.95S35.6,0,22.95,0ZM22.95,42.34c-10.69,0-19.39-8.7-19.39-19.39S12.26,3.56,22.95,3.56s19.39,8.7,19.39,19.39-8.7,19.39-19.39,19.39Z"/>
        <path d="M35.82,13.11h-3.5c-.22,0-.42.15-.48.37l-3.24,11.85-3.4-11.86c-.06-.21-.26-.36-.48-.36h-3.54c-.22,0-.41.14-.47.35l-3.51,11.87-3.14-11.85c-.05-.22-.25-.37-.48-.37h-3.51c-.15,0-.3.07-.39.19-.09.12-.13.28-.09.43l5.19,19.73c.06.22.25.37.48.37h3.57c.23,0,.42-.15.48-.37l3.58-13.39,3.5,13.39c.06.22.25.37.48.37h3.51c.22,0,.42-.15.48-.36l5.44-19.73c.04-.15,0-.31-.08-.43-.09-.12-.24-.2-.39-.2Z"/>
      </g>
      <path d="M40.94,50.75H4.96c-.98,0-1.78.8-1.78,1.78s.8,1.78,1.78,1.78h35.97c.98,0,1.78-.8,1.78-1.78s-.8-1.78-1.78-1.78Z"/>
      <path d="M40.94,59.16H4.96c-.98,0-1.78.8-1.78,1.78s.8,1.78,1.78,1.78h35.97c.98,0,1.78-.8,1.78-1.78s-.8-1.78-1.78-1.78Z"/>
    </g>
  </g>
</svg>