<?xml version="1.0" encoding="UTF-8"?>
<svg id="_레이어_2" data-name="레이어 2" xmlns="http://www.w3.org/2000/svg" viewBox="0 0 91.83 40.63">
  <g id="_레이어_1-2" data-name="레이어 1">
    <g>
      <path d="M78.66,37.31l-29.21-17L78.66,3.32c.85-.5,1.14-1.58.64-2.43-.5-.85-1.59-1.13-2.43-.64l-30.95,18.02L14.96.24c-.85-.49-1.94-.21-2.43.64-.49.85-.2,1.94.64,2.43l29.21,17-29.21,17c-.85.5-1.14,1.58-.64,2.43.33.57.93.88,1.54.88.31,0,.61-.08.9-.24l30.95-18.02,30.95,18.02c.28.16.59.24.9.24.61,0,1.21-.32,1.54-.88.49-.85.2-1.94-.64-2.43Z"/>
      <path d="M90.05,6.91h-4.13c-9.15,0-15.92,5.7-18.52,8.29-3.3-2.43-12.2-8.29-21.48-8.29-.04,0-.08,0-.13,0-1.55,0-9.79.05-15.52,6.3-5.2-5.9-15.93-6.28-16.48-6.3H1.78c-.98,0-1.78.8-1.78,1.78v23.27c0,.98.8,1.78,1.78,1.78h4.13c9.15,0,15.92-5.7,18.52-8.29,3.3,2.43,12.2,8.3,21.48,8.3.14,0,.28,0,.49,0,2.18,0,9.78-.45,15.16-6.3,5.2,5.9,15.93,6.28,16.48,6.3h12.02c.98,0,1.78-.8,1.78-1.78V8.69c0-.98-.8-1.78-1.78-1.78ZM5.91,30.17h-2.35V10.46h10.19c.11,0,10.25.37,14.18,5.48l-4.83,5.7c-.14.17-.21.24-.21.24,0,0,0,0,0,0h0c-.07.09-7.07,8.28-16.97,8.28ZM46.01,30.17c-.09-.01-.18,0-.27,0-7.87-.07-15.77-5.14-18.93-7.41,1.01-1.19,2.77-3.26,5.69-6.72,5.03-5.94,13.23-5.58,13.31-5.58.09.01.18,0,.27,0,7.87.08,15.76,5.13,18.92,7.41-1.01,1.19-2.77,3.26-5.69,6.72-5.03,5.94-13.22,5.57-13.31,5.58ZM88.28,30.18h-10.19c-.11,0-10.25-.37-14.19-5.48l5.05-5.96c.07-.08,7.07-8.27,16.97-8.27h2.35v19.71Z"/>
    </g>
  </g>
</svg>