<?xml version="1.0" encoding="UTF-8"?>
<svg id="_레이어_2" data-name="레이어 2" xmlns="http://www.w3.org/2000/svg" viewBox="0 0 74.5 45.9">
  <g id="_레이어_1-2" data-name="레이어 1">
    <g>
      <path d="M66.75.06c-.95-.26-1.92.34-2.16,1.29l-1.76,7c-1.2-.61-2.49-.9-3.96-.9-3.37,0-5.14,1.53-6.57,2.76-1.28,1.1-2.2,1.9-4.25,1.9s-2.96-.8-4.24-1.9c-1.43-1.23-3.2-2.76-6.56-2.76s-5.13,1.53-6.56,2.76c-1.28,1.1-2.2,1.9-4.24,1.9s-2.97-.8-4.25-1.9c-1.43-1.23-3.2-2.76-6.57-2.76-1.48,0-2.76.29-3.96.9l-1.76-7c-.24-.95-1.21-1.54-2.16-1.29-.95.24-1.53,1.21-1.29,2.16l10.67,42.34c.2.79.91,1.34,1.72,1.34h36.8c.81,0,1.52-.55,1.72-1.34L68.04,2.22c.24-.95-.34-1.92-1.29-2.16ZM54.26,42.34H20.23l-7.67-30.42s.09-.04.13-.07c.63-.42,1.47-.85,2.93-.85,2.05,0,2.97.8,4.25,1.9,1.43,1.23,3.2,2.76,6.57,2.76s5.13-1.53,6.56-2.76c1.28-1.1,2.2-1.9,4.24-1.9s2.96.8,4.24,1.9c1.43,1.23,3.2,2.76,6.56,2.76s5.14-1.53,6.57-2.76c1.28-1.1,2.2-1.9,4.25-1.9,1.47,0,2.31.43,2.93.85.04.03.09.04.13.07l-7.67,30.42Z"/>
      <path d="M73.54,39.91l-32.45-16.96L73.54,5.99c.87-.45,1.21-1.53.75-2.4-.46-.87-1.54-1.2-2.4-.75l-34.65,18.11L2.6,2.84c-.86-.45-1.94-.12-2.4.75-.45.87-.12,1.94.75,2.4l32.45,16.96L.96,39.91c-.87.45-1.21,1.53-.75,2.4.32.61.94.96,1.58.96.28,0,.56-.07.82-.2l34.65-18.11,34.65,18.11c.26.14.54.2.82.2.64,0,1.26-.35,1.58-.96.45-.87.12-1.94-.75-2.4Z"/>
    </g>
  </g>
</svg>