<?xml version="1.0" encoding="UTF-8"?>
<svg id="_레이어_2" data-name="레이어 2" xmlns="http://www.w3.org/2000/svg" viewBox="0 0 67.25 45.9">
  <g id="_레이어_1-2" data-name="레이어 1">
    <g>
      <path d="M66.37,39.95l-29.21-17,29.21-17c.85-.5,1.14-1.58.64-2.43-.49-.85-1.58-1.14-2.43-.64l-30.95,18.02L2.67,2.87c-.85-.49-1.94-.2-2.43.64-.49.85-.21,1.94.64,2.43l29.21,17L.88,39.95c-.85.5-1.14,1.58-.64,2.43.33.57.93.88,1.54.88.3,0,.61-.08.89-.24l30.95-18.02,30.95,18.02c.28.16.59.24.89.24.61,0,1.21-.32,1.54-.88.49-.85.21-1.94-.64-2.43Z"/>
      <path d="M56.5,45.9H10.76c-.63,0-1.21-.33-1.53-.87-.32-.53-.34-1.2-.04-1.75L32.01.93c.31-.57.91-.93,1.56-.93h0c.65,0,1.25.36,1.56.93l22.92,42.34c.3.55.28,1.22-.03,1.76-.32.54-.9.87-1.53.87ZM13.74,42.34h39.78L33.58,5.52,13.74,42.34Z"/>
    </g>
  </g>
</svg>