<?xml version="1.0" encoding="UTF-8"?>
<svg id="_레이어_2" data-name="레이어 2" xmlns="http://www.w3.org/2000/svg" viewBox="0 0 49.29 45.9">
  <g id="_레이어_1-2" data-name="레이어 1">
    <path d="M49.08,43.27l-15.26-28.19s-.01-.02-.02-.03L26.16.93c-.31-.57-.91-.93-1.56-.93h0c-.65,0-1.25.36-1.56.93L.21,43.27c-.3.55-.28,1.22.04,1.75.32.54.9.87,1.53.87h45.74c.63,0,1.21-.33,1.53-.87.32-.54.33-1.21.03-1.76ZM20,42.34l12.24-22.71,5.62,10.38-6.65,12.33h-11.21ZM24.6,5.52l5.62,10.37-14.25,26.45H4.76L24.6,5.52ZM35.25,42.34l4.63-8.59,4.65,8.59h-9.28Z"/>
  </g>
</svg>