<?xml version="1.0" encoding="UTF-8"?>
<svg id="_레이어_2" data-name="레이어 2" xmlns="http://www.w3.org/2000/svg" viewBox="0 0 49.29 45.9">
  <g id="_레이어_1-2" data-name="레이어 1">
    <g>
      <path d="M47.52,45.9H1.78c-.63,0-1.21-.33-1.53-.87-.32-.53-.34-1.2-.04-1.75L23.03.93c.31-.57.91-.93,1.56-.93h0c.65,0,1.25.36,1.56.93l22.92,42.34c.3.55.28,1.22-.03,1.76-.32.54-.9.87-1.53.87ZM4.76,42.34h39.78L24.6,5.52,4.76,42.34Z"/>
      <path d="M35.95,35.7h-5.11v-8.77c0-.3-.25-.54-.55-.54h-1.92c-.3,0-.54.24-.54.54v10.98c0,.3.24.54.54.54h7.58c.3,0,.55-.24.55-.54v-1.66c0-.3-.25-.55-.55-.55Z"/>
      <path d="M24.72,33.4h-1.89c-.27,0-.5.2-.54.47-.04.25-.09.54-.18.79-.11.28-.26.53-.45.74-.18.21-.41.37-.67.48-.25.12-.56.18-.91.18-.49,0-.91-.1-1.25-.29-.35-.19-.63-.45-.85-.77-.23-.34-.4-.74-.52-1.17-.12-.45-.17-.93-.17-1.41s.06-.95.17-1.4c.11-.43.28-.83.52-1.18.22-.32.5-.58.85-.77.34-.19.76-.28,1.25-.28.34,0,.63.04.87.13.24.09.45.21.62.36.18.15.32.33.43.53.08.15.14.33.22.57.07.23.28.38.52.38h1.96c.16,0,.31-.07.41-.19.1-.13.15-.28.12-.43-.09-.6-.25-1.1-.5-1.55-.3-.53-.68-.98-1.15-1.34-.46-.36-1-.64-1.61-.83-.6-.18-1.24-.28-1.9-.28-.9,0-1.72.17-2.44.51-.72.34-1.33.8-1.83,1.38-.49.57-.88,1.24-1.14,2.01-.26.75-.39,1.55-.39,2.39s.13,1.66.39,2.41c.26.76.65,1.44,1.14,2.01.5.58,1.11,1.04,1.83,1.38.72.34,1.54.51,2.44.51.73,0,1.41-.12,2.02-.36.61-.24,1.16-.59,1.63-1.03.45-.44.82-.97,1.09-1.58.22-.5.36-1.07.44-1.75.01-.16-.04-.31-.14-.41-.1-.11-.25-.18-.41-.18Z"/>
    </g>
  </g>
</svg>