<?xml version="1.0" encoding="UTF-8"?>
<svg id="_레이어_2" data-name="레이어 2" xmlns="http://www.w3.org/2000/svg" viewBox="0 0 67.26 45.9">
  <g id="_레이어_1-2" data-name="레이어 1">
    <g>
      <path d="M66.37,39.95l-29.21-17,29.21-17c.85-.5,1.14-1.58.64-2.43-.49-.85-1.58-1.14-2.43-.64l-30.96,18.02L2.67,2.87c-.85-.49-1.94-.2-2.43.64-.49.85-.21,1.94.64,2.43l29.21,17L.88,39.95c-.85.5-1.14,1.58-.64,2.43.33.57.93.88,1.54.88.3,0,.61-.08.89-.24l30.96-18.02,30.96,18.02c.28.16.59.24.89.24.61,0,1.21-.32,1.54-.88.49-.85.21-1.94-.64-2.43Z"/>
      <path d="M54.8,0H12.46c-.98,0-1.78.8-1.78,1.78v42.34c0,.98.8,1.78,1.78,1.78h42.34c.98,0,1.78-.8,1.78-1.78V1.78c0-.98-.8-1.78-1.78-1.78ZM53.02,13.33c-2.1-4.22-5.55-7.67-9.77-9.77h9.77v9.77ZM51.73,22.95c0,9.98-8.12,18.1-18.1,18.1s-18.1-8.12-18.1-18.1S23.65,4.85,33.63,4.85s18.1,8.12,18.1,18.1ZM24.01,3.56c-4.23,2.1-7.67,5.55-9.77,9.77V3.56h9.77ZM14.24,32.57c2.1,4.22,5.54,7.66,9.77,9.77h-9.77v-9.77ZM43.25,42.34c4.22-2.1,7.66-5.55,9.77-9.77v9.77h-9.77Z"/>
    </g>
  </g>
</svg>