<?xml version="1.0" encoding="UTF-8"?>
<svg id="_레이어_2" data-name="레이어 2" xmlns="http://www.w3.org/2000/svg" viewBox="0 0 45.9 62.72">
  <g id="_레이어_1-2" data-name="레이어 1">
    <g>
      <g>
        <path d="M44.12,0H1.78C.8,0,0,.8,0,1.78v42.34c0,.98.8,1.78,1.78,1.78h42.34c.98,0,1.78-.8,1.78-1.78V1.78c0-.98-.8-1.78-1.78-1.78ZM3.56,3.56h9.77c-4.22,2.1-7.66,5.55-9.77,9.77V3.56ZM3.56,42.34v-9.77c2.1,4.22,5.55,7.67,9.77,9.77H3.56ZM4.85,22.95C4.85,12.97,12.97,4.85,22.95,4.85s18.1,8.12,18.1,18.1-8.12,18.1-18.1,18.1S4.85,32.92,4.85,22.95ZM42.34,42.34h-9.77c4.23-2.1,7.67-5.55,9.77-9.77v9.77ZM42.34,13.32c-2.1-4.22-5.54-7.66-9.77-9.77h9.77v9.77Z"/>
        <circle cx="22.95" cy="22.95" r="14.54" transform="translate(-4.77 6.06) rotate(-13.65)"/>
      </g>
      <path d="M44.12,50.75H1.78c-.98,0-1.78.8-1.78,1.78s.8,1.78,1.78,1.78h42.34c.98,0,1.78-.8,1.78-1.78s-.8-1.78-1.78-1.78Z"/>
      <path d="M44.12,59.16H1.78c-.98,0-1.78.8-1.78,1.78s.8,1.78,1.78,1.78h42.34c.98,0,1.78-.8,1.78-1.78s-.8-1.78-1.78-1.78Z"/>
    </g>
  </g>
</svg>