<?xml version="1.0" encoding="UTF-8"?>
<svg id="_레이어_2" data-name="레이어 2" xmlns="http://www.w3.org/2000/svg" viewBox="0 0 67.26 45.9">
  <g id="_레이어_1-2" data-name="레이어 1">
    <g>
      <path d="M66.37,39.95l-29.21-17,29.21-17c.85-.5,1.14-1.58.64-2.43-.5-.85-1.59-1.14-2.43-.64l-30.95,18.02L2.68,2.87c-.85-.49-1.94-.21-2.43.64-.49.85-.2,1.94.64,2.43l29.21,17L.88,39.95c-.85.5-1.14,1.58-.64,2.43.33.57.93.88,1.54.88.31,0,.61-.08.9-.24l30.95-18.02,30.95,18.02c.28.16.59.24.9.24.61,0,1.21-.32,1.54-.88.49-.85.2-1.94-.64-2.43Z"/>
      <path d="M33.63,45.9c-12.66,0-22.95-10.29-22.95-22.95S20.97,0,33.63,0s22.95,10.29,22.95,22.95-10.29,22.95-22.95,22.95ZM33.63,3.56c-10.69,0-19.39,8.7-19.39,19.39s8.7,19.39,19.39,19.39,19.39-8.7,19.39-19.39S44.32,3.56,33.63,3.56Z"/>
    </g>
  </g>
</svg>