<?xml version="1.0" encoding="UTF-8"?>
<svg id="_레이어_2" data-name="레이어 2" xmlns="http://www.w3.org/2000/svg" viewBox="0 0 45.9 54.31">
  <g id="_레이어_1-2" data-name="레이어 1">
    <g>
      <path d="M22.95,45.9C10.29,45.9,0,35.6,0,22.95S10.29,0,22.95,0s22.95,10.29,22.95,22.95-10.29,22.95-22.95,22.95ZM22.95,3.56C12.26,3.56,3.56,12.26,3.56,22.95s8.7,19.39,19.39,19.39,19.39-8.7,19.39-19.39S33.64,3.56,22.95,3.56Z"/>
      <path d="M40.94,50.75H4.96c-.98,0-1.78.8-1.78,1.78s.8,1.78,1.78,1.78h35.97c.98,0,1.78-.8,1.78-1.78s-.8-1.78-1.78-1.78Z"/>
    </g>
  </g>
</svg>