<?xml version="1.0" encoding="UTF-8"?>
<svg id="_레이어_2" data-name="레이어 2" xmlns="http://www.w3.org/2000/svg" viewBox="0 0 58.35 58.35">
  <g id="_레이어_1-2" data-name="레이어 1">
    <g>
      <path d="M6.71,19.18c-8.95,8.95-8.95,23.51,0,32.45,4.47,4.47,10.35,6.71,16.23,6.71s11.76-2.24,16.23-6.71c8.95-8.95,8.95-23.51,0-32.45-8.94-8.95-23.51-8.95-32.45,0ZM36.65,49.13c-7.56,7.55-19.87,7.56-27.43,0-7.56-7.56-7.56-19.86,0-27.43,7.56-7.55,19.86-7.56,27.43,0,7.56,7.56,7.56,19.87,0,27.43Z"/>
      <path d="M57.83,25.96L32.39.52c-.69-.69-1.82-.69-2.51,0-.69.69-.69,1.82,0,2.51l25.44,25.44c.35.35.8.52,1.26.52s.91-.17,1.26-.52c.69-.69.69-1.82,0-2.51Z"/>
    </g>
  </g>
</svg>