<?xml version="1.0" encoding="UTF-8"?>
<svg id="_레이어_2" data-name="레이어 2" xmlns="http://www.w3.org/2000/svg" viewBox="0 0 45.9 62.72">
  <g id="_레이어_1-2" data-name="레이어 1">
    <g>
      <g>
        <path d="M22.95,0C10.29,0,0,10.29,0,22.95s10.29,22.95,22.95,22.95,22.95-10.29,22.95-22.95S35.6,0,22.95,0ZM22.95,42.34c-10.69,0-19.39-8.7-19.39-19.39S12.26,3.56,22.95,3.56s19.39,8.7,19.39,19.39-8.7,19.39-19.39,19.39Z"/>
        <path d="M25.23,12.91c-.07-.19-.26-.32-.46-.32h-3.67c-.2,0-.39.13-.46.32l-7.57,19.73c-.06.15-.04.32.05.46.09.14.24.22.41.22h3.57c.21,0,.4-.13.47-.33l1.43-4.05h7.79l1.42,4.05c.07.2.26.33.47.33h3.7c.16,0,.32-.08.41-.22.09-.14.11-.31.05-.46l-7.6-19.73ZM20.26,25.33l2.64-7.47,2.62,7.47h-5.26Z"/>
      </g>
      <path d="M40.94,50.75H4.96c-.98,0-1.78.8-1.78,1.78s.8,1.78,1.78,1.78h35.97c.98,0,1.78-.8,1.78-1.78s-.8-1.78-1.78-1.78Z"/>
      <path d="M40.94,59.16H4.96c-.98,0-1.78.8-1.78,1.78s.8,1.78,1.78,1.78h35.97c.98,0,1.78-.8,1.78-1.78s-.8-1.78-1.78-1.78Z"/>
    </g>
  </g>
</svg>