<?xml version="1.0" encoding="UTF-8"?>
<svg id="_레이어_2" data-name="레이어 2" xmlns="http://www.w3.org/2000/svg" viewBox="0 0 45.9 45.9">
  <g id="_레이어_1-2" data-name="레이어 1">
    <g>
      <path d="M30.3,13.11h-13.62c-.27,0-.5.22-.5.5v19.73c0,.27.22.5.5.5h3.45c.27,0,.5-.22.5-.5v-7.77h9.67c.27,0,.5-.22.5-.5v-2.82c0-.27-.22-.5-.5-.5h-9.67v-4.66h9.67c.27,0,.5-.22.5-.5v-2.98c0-.27-.22-.5-.5-.5Z"/>
      <path d="M22.95,0C10.29,0,0,10.29,0,22.95s10.29,22.95,22.95,22.95,22.95-10.29,22.95-22.95S35.6,0,22.95,0ZM22.95,42.34c-10.69,0-19.39-8.7-19.39-19.39S12.26,3.56,22.95,3.56s19.39,8.7,19.39,19.39-8.7,19.39-19.39,19.39Z"/>
    </g>
  </g>
</svg>