<?xml version="1.0" encoding="UTF-8"?>
<svg id="_레이어_2" data-name="레이어 2" xmlns="http://www.w3.org/2000/svg" viewBox="0 0 45.9 45.9">
  <g id="_레이어_1-2" data-name="레이어 1">
    <g>
      <path d="M22.95,0C10.29,0,0,10.29,0,22.95s10.29,22.95,22.95,22.95,22.95-10.29,22.95-22.95S35.6,0,22.95,0ZM22.95,42.34c-10.69,0-19.39-8.7-19.39-19.39S12.26,3.56,22.95,3.56s19.39,8.7,19.39,19.39-8.7,19.39-19.39,19.39Z"/>
      <path d="M30.44,15.42c-.52-.67-1.27-1.23-2.23-1.67-.95-.43-2.17-.65-3.63-.65h-7.9c-.27,0-.49.22-.49.5v19.73c0,.27.22.5.49.5h3.45c.27,0,.49-.22.49-.5v-7.08h3.96c1.49,0,2.68-.21,3.63-.64.95-.43,1.7-.98,2.23-1.65.52-.66.88-1.39,1.07-2.17.18-.76.27-1.45.27-2.1s-.09-1.34-.28-2.1c-.19-.79-.55-1.52-1.07-2.18ZM27.08,20.9c-.18.32-.4.57-.68.75-.29.19-.61.33-.96.42-.36.09-.72.13-1.06.13h-3.76v-5.04h3.82c.42,0,.83.04,1.19.11.34.07.63.19.88.38.25.18.45.42.6.74.15.33.23.76.23,1.28s-.09.91-.26,1.22Z"/>
    </g>
  </g>
</svg>