<?xml version="1.0" encoding="UTF-8"?>
<svg id="_레이어_2" data-name="레이어 2" xmlns="http://www.w3.org/2000/svg" viewBox="0 0 91.83 26.83">
  <g id="_레이어_1-2" data-name="레이어 1">
    <path d="M90.05,0h-4.13c-9.15,0-15.92,5.7-18.52,8.29-3.3-2.43-12.2-8.29-21.48-8.29-.04,0-.08,0-.13,0-1.55,0-9.79.05-15.52,6.3C25.07.4,14.34.02,13.79,0H1.78C.8,0,0,.8,0,1.78v23.27c0,.98.8,1.78,1.78,1.78h4.13c9.15,0,15.92-5.7,18.52-8.29,3.3,2.43,12.2,8.3,21.48,8.3.14,0,.28,0,.49,0,2.18,0,9.78-.45,15.16-6.3,5.2,5.9,15.93,6.28,16.48,6.3h12.02c.98,0,1.78-.8,1.78-1.78V1.78c0-.98-.8-1.78-1.78-1.78ZM5.91,23.27h-2.35V3.56h10.19c.11,0,10.25.37,14.18,5.48l-4.83,5.7c-.14.17-.21.24-.21.24,0,0,0,0,0,0h0c-.07.09-7.07,8.28-16.97,8.28ZM46.01,23.26c-.09-.01-.18,0-.27,0-7.87-.07-15.77-5.14-18.93-7.41,1.01-1.19,2.77-3.26,5.69-6.72,5.03-5.94,13.23-5.58,13.31-5.58.09.01.18,0,.27,0,7.87.08,15.76,5.13,18.92,7.41-1.01,1.19-2.77,3.26-5.69,6.72-5.03,5.94-13.22,5.57-13.31,5.58ZM88.28,23.27h-10.19c-.11,0-10.25-.37-14.19-5.48l5.05-5.96c.07-.08,7.07-8.27,16.97-8.27h2.35v19.71Z"/>
  </g>
</svg>