<?xml version="1.0" encoding="UTF-8"?>
<svg id="_레이어_2" data-name="레이어 2" xmlns="http://www.w3.org/2000/svg" viewBox="0 0 243.15 192.19">
  <defs>
    <style>
      .cls-1 {
        fill: #f3d55b;
      }

      .cls-2 {
        stroke: #fff;
      }

      .cls-2, .cls-3, .cls-4 {
        fill: none;
        stroke-miterlimit: 10;
      }

      .cls-5 {
        fill: #8260b2;
      }

      .cls-6 {
        fill: #e44e7b;
      }

      .cls-7 {
        fill: #078dd8;
      }

      .cls-8 {
        fill: #74a33e;
      }

      .cls-3 {
        stroke: #000;
      }

      .cls-4 {
        stroke: #1a1a1a;
      }

      .cls-9 {
        fill: #ea8b2d;
      }

      .cls-10 {
        fill: #e74b3c;
      }

      .cls-11 {
        fill: #2651a8;
      }
    </style>
  </defs>
  <g id="_레이어_1-2" data-name="레이어 1">
    <path class="cls-9" d="M27.91,81.13C27.91,36.6,69.68.5,121.21.5s93.3,36.1,93.3,80.63"/>
    <path class="cls-4" d="M27.91,81.13C27.91,36.6,69.68.5,121.21.5s93.3,36.1,93.3,80.63"/>
    <path class="cls-11" d="M14.62,76.5c0-28.17,24.4-51,54.5-51s54.5,22.83,54.5,51"/>
    <path class="cls-4" d="M14.62,76.5c0-28.17,24.4-51,54.5-51s54.5,22.83,54.5,51"/>
    <path class="cls-7" d="M230.32,99.75l-24.73,85.84s-3.23,6.1-15.14,6.1,0,0,0,0H49s11.92,0,0,0-15.14-6.1-15.14-6.1L9.13,99.75h221.19Z"/>
    <path class="cls-3" d="M230.32,99.75l-24.73,85.84s-3.23,6.1-15.14,6.1,0,0,0,0H49s11.92,0,0,0-15.14-6.1-15.14-6.1L9.13,99.75h221.19Z"/>
    <line class="cls-2" x1="18.76" y1="131.09" x2="220.76" y2="131.09"/>
    <line class="cls-2" x1="27.76" y1="161.64" x2="211.76" y2="161.64"/>
    <line class="cls-2" x1="49.65" y1="99.75" x2="58.99" y2="190.69"/>
    <line class="cls-2" x1="83.64" y1="99.75" x2="89.51" y2="190.69"/>
    <line class="cls-2" x1="187.42" y1="99.75" x2="178.18" y2="190.69"/>
    <line class="cls-2" x1="153.48" y1="99.75" x2="147.61" y2="190.69"/>
    <line class="cls-2" x1="119.73" y1="98.76" x2="119.73" y2="190.69"/>
    <path class="cls-5" d="M120.82,76.13c0-29.55,25.6-53.51,57.18-53.51s57.18,23.96,57.18,53.51"/>
    <path class="cls-4" d="M120.82,76.13c0-29.55,25.6-53.51,57.18-53.51s57.18,23.96,57.18,53.51"/>
    <path class="cls-6" d="M132.4,76.62c0-21.84,18.79-39.55,41.96-39.55s41.96,17.71,41.96,39.55"/>
    <path class="cls-3" d="M132.4,76.62c0-21.84,18.79-39.55,41.96-39.55s41.96,17.71,41.96,39.55"/>
    <path class="cls-1" d="M119.38,89.67c0-18.24,18.79-33.02,41.96-33.02s41.96,14.78,41.96,33.02"/>
    <path class="cls-4" d="M119.38,89.67c0-18.24,18.79-33.02,41.96-33.02s41.96,14.78,41.96,33.02"/>
    <path class="cls-8" d="M27.4,76.62c0-21.84,18.79-39.55,41.96-39.55s41.96,17.71,41.96,39.55"/>
    <path class="cls-3" d="M27.4,76.62c0-21.84,18.79-39.55,41.96-39.55s41.96,17.71,41.96,39.55"/>
    <path class="cls-10" d="M41.83,89.67c0-18.24,18.79-33.02,41.96-33.02s41.96,14.78,41.96,33.02"/>
    <path class="cls-4" d="M41.83,89.67c0-18.24,18.79-33.02,41.96-33.02s41.96,14.78,41.96,33.02"/>
    <path class="cls-7" d="M230.65,100.54H12.5c-6.6,0-12-5.4-12-12s5.4-12,12-12h218.15c6.6,0,12,5.4,12,12s-5.4,12-12,12"/>
    <path class="cls-4" d="M230.65,100.54H12.5c-6.6,0-12-5.4-12-12s5.4-12,12-12h218.15c6.6,0,12,5.4,12,12s-5.4,12-12,12Z"/>
  </g>
</svg>