<?xml version="1.0" encoding="UTF-8"?>
<svg id="_레이어_2" data-name="레이어 2" xmlns="http://www.w3.org/2000/svg" viewBox="0 0 78.32 165.49">
  <defs>
    <style>
      .cls-1 {
        fill: #7fa6cc;
      }
    </style>
  </defs>
  <g id="_레이어_1-2" data-name="레이어 1">
    <rect class="cls-1" x="5.21" y="2.59" width="68.34" height="11.79"/>
    <path class="cls-1" d="M75.48,162.9h-28.49c-.31-15.3-1.88-30.43-1.73-45.38.14-14.95-3.21-51.87-5.88-73.44v-6.91s7.71,1.85,7.71-7.64v-15.16h7.07c-2.25,11.49,4.82,15.86,19.78,9.97,1.68,44.88,2.13,91.14,1.54,138.56"/>
    <path class="cls-1" d="M73.95,24.34c-14.96,5.89-22.03,1.52-19.78-9.97h19.39c.14,3.32.27,6.64.39,9.97"/>
    <path class="cls-1" d="M39.38,14.37v29.71c-2.56,20.91-5.19,51.42-5.49,73.26-.3,21.84-1.22,30.04-1.47,45.56H3.92c-1.99-47.11-1.79-93.52.73-139.21,13.19,4.17,22.73,3.01,21.22-9.32h13.5Z"/>
    <path class="cls-1" d="M4.66,23.69c.17-3.11.36-6.22.55-9.32h20.67c1.5,12.33-8.04,13.48-21.22,9.32"/>
    <path class="cls-1" d="M47.09,14.37v15.16c0,9.48-7.71,7.64-7.71,7.64V14.37h7.71Z"/>
    <path d="M73.55,16.96H5.21c-1.43,0-2.59-1.16-2.59-2.59V2.59C2.62,1.16,3.78,0,5.21,0h68.34c1.43,0,2.59,1.16,2.59,2.58v11.79c0,1.43-1.16,2.59-2.59,2.59M7.8,11.79h63.17v-6.61H7.8v6.61Z"/>
    <path d="M75.48,165.49h-28.49c-1.41,0-2.56-1.13-2.59-2.53-.13-6.48-.5-13.04-.85-19.39-.48-8.56-.97-17.41-.88-26.07.15-15.37-3.37-52.98-5.86-73.1-.01-.1-.02-.21-.02-.32v-6.91c0-.79.36-1.54.98-2.03.62-.49,1.43-.67,2.2-.48h0s.37.07.88.07c1,0,3.65,0,3.65-5.2v-15.16c0-1.43,1.16-2.59,2.59-2.59h7.07c.77,0,1.51.35,2,.94.49.6.69,1.38.54,2.14-.69,3.52-.39,6.19.85,7.7.98,1.19,2.69,1.8,5.07,1.8,2.78,0,6.27-.82,10.37-2.44.78-.31,1.66-.22,2.36.24.7.46,1.14,1.23,1.17,2.07,1.63,43.5,2.15,90.16,1.54,138.69-.02,1.42-1.17,2.55-2.59,2.55M49.51,160.32h23.42c.55-46.22.06-90.71-1.44-132.35-3.32,1.05-6.29,1.58-8.87,1.58-4.98,0-7.68-2-9.06-3.69-1.82-2.21-2.61-5.19-2.35-8.9h-1.53v12.57c0,6.98-3.8,9.86-7.71,10.31v4.08c2.51,20.3,6.03,58.08,5.88,73.63-.08,8.49.4,17.26.87,25.73.31,5.57.63,11.31.79,17.04"/>
    <path d="M62.62,29.55c-4.98,0-7.68-2-9.06-3.69-2.3-2.79-2.95-6.82-1.94-11.99.24-1.21,1.3-2.09,2.54-2.09h19.39c1.39,0,2.53,1.09,2.58,2.48.14,3.32.27,6.65.39,9.99.04,1.1-.62,2.1-1.64,2.5-4.71,1.85-8.84,2.8-12.27,2.8M56.4,16.96c-.22,2.5.17,4.42,1.16,5.62.98,1.2,2.69,1.8,5.07,1.8s5.3-.6,8.67-1.8c-.07-1.88-.14-3.75-.22-5.62h-14.68Z"/>
    <path d="M32.42,165.49H3.92c-1.39,0-2.53-1.09-2.58-2.48C-.67,115.58-.42,68.65,2.07,23.55c.04-.8.45-1.53,1.11-1.98.66-.46,1.49-.58,2.25-.34,4.32,1.36,7.97,2.05,10.85,2.05s4.72-.63,5.81-1.87c1.18-1.34,1.59-3.6,1.21-6.72-.09-.74.14-1.47.63-2.03.49-.55,1.19-.87,1.94-.87h13.5c1.43,0,2.59,1.16,2.59,2.59v29.71c0,.1,0,.21-.02.31-2.51,20.51-5.17,51.02-5.47,72.98-.16,12.12-.53,20.21-.85,27.35-.26,5.82-.51,11.32-.62,18.22-.02,1.41-1.17,2.55-2.59,2.55M6.4,160.32h23.47c.13-5.82.35-10.7.58-15.83.32-7.1.68-15.15.85-27.19.3-22.1,2.97-52.74,5.49-73.39v-26.96h-8.17c-.03,3.29-.92,5.93-2.64,7.88-2.12,2.4-5.38,3.61-9.69,3.61-2.64,0-5.73-.46-9.23-1.37-2.28,43.16-2.5,87.95-.66,133.24"/>
    <path d="M16.29,28.45c-3.41,0-7.59-.77-12.41-2.3-1.13-.36-1.87-1.43-1.8-2.61.17-3.12.36-6.23.55-9.33.08-1.36,1.21-2.42,2.58-2.42h20.67c1.31,0,2.41.97,2.57,2.27.57,4.66-.26,8.28-2.47,10.78-2.12,2.4-5.38,3.61-9.69,3.61M7.35,21.8c3.49.98,6.49,1.48,8.94,1.48,2.76,0,4.72-.63,5.81-1.87.87-.99,1.32-2.48,1.35-4.45H7.64c-.1,1.61-.19,3.22-.29,4.84"/>
    <path d="M40.86,39.9c-1.12,0-1.93-.18-2.08-.22-1.16-.28-1.98-1.32-1.98-2.52V14.37c0-1.43,1.16-2.59,2.59-2.59h7.71c1.43,0,2.59,1.16,2.59,2.59v15.16c0,7.65-4.56,10.37-8.82,10.37M41.96,16.96v17.66c1.15-.28,2.54-1.32,2.54-5.09v-12.57h-2.54Z"/>
    <path d="M42.11,11.07h-2.73c-1.43,0-2.59-1.16-2.59-2.59s1.16-2.59,2.59-2.59h2.73c1.43,0,2.59,1.16,2.59,2.59s-1.16,2.59-2.59,2.59"/>
    <path d="M21.87,16.96c-1.43,0-2.59-1.16-2.59-2.59V2.59c0-1.43,1.16-2.59,2.59-2.59s2.59,1.16,2.59,2.59v11.79c0,1.43-1.16,2.59-2.59,2.59"/>
    <path d="M57.99,16.96c-1.43,0-2.59-1.16-2.59-2.59V2.59c0-1.43,1.16-2.59,2.59-2.59s2.59,1.16,2.59,2.59v11.79c0,1.43-1.16,2.59-2.59,2.59"/>
  </g>
</svg>