<?xml version="1.0" encoding="UTF-8"?>
<svg id="_레이어_2" data-name="레이어 2" xmlns="http://www.w3.org/2000/svg" xmlns:xlink="http://www.w3.org/1999/xlink" viewBox="0 0 165.49 154.32">
  <defs>
    <style>
      .cls-1 {
        fill: none;
      }

      .cls-2 {
        fill: #434a54;
      }

      .cls-3 {
        fill: #ffe15e;
      }

      .cls-4 {
        fill: #fff;
      }

      .cls-5 {
        opacity: .15;
      }

      .cls-6 {
        clip-path: url(#clippath);
      }
    </style>
    <clipPath id="clippath">
      <rect class="cls-1" x="58.73" y="2.58" width="48.03" height="11.68"/>
    </clipPath>
  </defs>
  <g id="_레이어_1-2" data-name="레이어 1">
    <path class="cls-4" d="M103.34,7.86c0,2.21-9.18,4-20.5,4s-20.5-1.79-20.5-4,9.18-4,20.5-4,20.5,1.79,20.5,4"/>
    <path class="cls-4" d="M124.32,45.64v106.1H41.17V45.64c1.44-15.41,8.31-29.07,17.56-40.56,0,0,0,0,0,.01.27.37,5.01,9.18,24,9.18s23.74-8.81,24.01-9.18c0,0,0-.01,0-.01,11.21,9.38,16.55,24.15,17.56,40.56"/>
    <path class="cls-3" d="M58.73,5.07c-9.25,11.49-16.12,25.16-17.56,40.56-13.21,25.36-11.4,56.07-20.98,96.7l-17.61-1.95S15.4,52.1,19.22,34.64c3.82-17.46,6.85-23.94,16.82-27.81l22.69-1.75Z"/>
    <path class="cls-3" d="M162.9,140.39l-17.61,1.95c-9.59-40.64-7.76-71.34-20.98-96.7-1.02-16.41-6.35-31.18-17.56-40.56l22.69,1.75c9.97,3.88,12.22,8.86,16.82,27.82,4.59,18.96,16.64,105.75,16.64,105.75"/>
    <g class="cls-5">
      <g class="cls-6">
        <path class="cls-2" d="M106.76,5.07s0,0,0,.01c-.27.37-5.01,9.18-24.01,9.18s-23.73-8.81-24-9.18c0,0,0-.01,0-.01,19.88-3.52,27.34-3.11,48.03,0"/>
      </g>
    </g>
    <path d="M20.19,144.93c-.09,0-.19,0-.29-.02l-17.61-1.95c-.7-.08-1.33-.43-1.76-.99-.43-.55-.61-1.26-.51-1.95.52-3.61,12.87-88.57,16.67-105.93,3.97-18.16,7.35-25.38,18.41-29.67.24-.09.48-.15.74-.17l22.69-1.75c1.03-.08,2.01.46,2.49,1.37.48.91.37,2.02-.27,2.83-10.01,12.44-15.73,25.62-17,39.18-.03.33-.13.66-.28.95-7.88,15.13-10.33,32.58-13.16,52.79-1.8,12.86-3.85,27.43-7.59,43.32-.28,1.18-1.33,1.99-2.52,1.99M5.53,138.11l12.66,1.41c3.37-14.79,5.28-28.48,6.99-40.62,2.87-20.49,5.36-38.2,13.47-54.01,1.29-12.72,6.17-25.07,14.55-36.8l-16.56,1.28c-8.21,3.3-11.04,8.26-14.88,25.82-3.39,15.48-14.05,88.08-16.22,102.92"/>
    <path d="M145.29,144.93c-1.18,0-2.24-.81-2.51-1.99-3.75-15.89-5.79-30.47-7.6-43.34-2.83-20.2-5.28-37.64-13.16-52.77-.17-.32-.27-.67-.29-1.04-1.06-17.12-6.81-30.52-16.64-38.74-.86-.72-1.16-1.92-.73-2.96.42-1.04,1.47-1.69,2.59-1.6l22.69,1.75c.25.02.5.08.74.17,11.43,4.44,13.85,10.87,18.39,29.61,4.57,18.87,16.19,102.45,16.68,106,.1.69-.09,1.39-.52,1.94-.43.55-1.06.9-1.76.98l-17.61,1.95c-.1.01-.19.02-.29.02M126.87,44.93c8.09,15.79,10.57,33.49,13.44,53.95,1.7,12.15,3.62,25.84,6.99,40.64l12.68-1.41c-2.06-14.66-12.16-86.09-16.22-102.86-4.6-19.01-6.61-22.58-14.89-25.88l-15.29-1.18c7.71,9.01,12.27,21.55,13.3,36.74"/>
    <path d="M82.74,16.85c-18.19,0-24.6-7.87-26.13-10.29h0c-.3-.43-.47-.96-.47-1.49,0-1.25.9-2.33,2.14-2.55,10.28-1.82,16.87-2.53,23.52-2.53,7.23,0,14.48.88,25.34,2.51,1.27.19,2.2,1.28,2.2,2.56,0,.52-.16,1.03-.45,1.46-1.56,2.46-7.97,10.32-26.15,10.32M63.9,6.82c3.05,2.3,8.71,4.86,18.84,4.86s15.66-2.49,18.73-4.77c-8-1.13-13.89-1.74-19.67-1.74-5.26,0-10.54.48-17.9,1.65"/>
    <path d="M124.32,154.32H41.17c-1.43,0-2.59-1.16-2.59-2.59V45.64c0-.08,0-.16.01-.24,1.36-14.59,7.46-28.7,18.12-41.94.69-.85,1.84-1.18,2.87-.82.58.2,1.05.6,1.35,1.1.01.02.02.04.04.06,1.17,1.85,6.21,7.89,21.76,7.89s20.59-6.04,21.77-7.89c.01-.02.03-.05.04-.07.26-.43.64-.78,1.11-1,.91-.43,1.98-.29,2.75.36,10.94,9.16,17.33,23.81,18.48,42.39,0,.05,0,.11,0,.16v106.1c0,1.43-1.16,2.59-2.59,2.59M43.76,149.15h77.98V45.72c-1-15.91-6.05-28.6-14.67-36.9-3.15,3.27-10.17,8.03-24.32,8.03s-20.64-4.42-23.95-7.65c-8.78,11.66-13.84,23.95-15.04,36.56v103.4Z"/>
  </g>
</svg>