<?xml version="1.0" encoding="UTF-8"?>
<svg id="_레이어_2" data-name="레이어 2" xmlns="http://www.w3.org/2000/svg" viewBox="0 0 165.49 151.75">
  <defs>
    <style>
      .cls-1 {
        fill: #d1d1d1;
      }
    </style>
  </defs>
  <g id="_레이어_1-2" data-name="레이어 1">
    <path class="cls-1" d="M162.9,53.16l-27.15,14.91-11.46-18.78v99.87H41.19V49.29l-11.45,18.78L2.59,53.16s8.74-19.92,13.88-27.97c5.13-8.05,9.95-15.46,19.91-19.33l20.44-3.27s6.54,19.18,25.94,19.18S108.68,2.59,108.68,2.59l20.44,3.27c9.96,3.87,14.78,12.59,19.91,20.64,5.13,8.05,13.87,26.66,13.87,26.66"/>
    <path class="cls-1" d="M108.68,3.59s-6.54,19.18-25.94,19.18S56.81,3.59,56.81,3.59c17.29,5.5,34.59,5.5,51.88,0"/>
    <path d="M124.3,151.75H41.19c-1.43,0-2.59-1.16-2.59-2.59V58.49l-6.66,10.92c-.72,1.18-2.24,1.59-3.45.92L1.34,55.42c-1.17-.64-1.66-2.08-1.12-3.31.36-.82,8.88-20.2,14.07-28.32,5.04-7.92,10.26-16.11,21.15-20.35.17-.07.35-.11.53-.14L56.4.03c1.24-.2,2.45.53,2.86,1.72.24.71,6.23,17.42,23.49,17.42S106.18,1.93,106.24,1.75c.41-1.19,1.61-1.92,2.86-1.72l20.44,3.27c.18.03.36.08.53.14,9.94,3.86,15.01,11.91,19.91,19.68.42.66.83,1.32,1.25,1.98,5.16,8.09,13.67,26.18,14.03,26.95.58,1.23.1,2.71-1.1,3.37l-27.15,14.91c-1.21.67-2.73.26-3.45-.92l-6.66-10.93v90.67c0,1.43-1.16,2.59-2.59,2.59M43.78,146.57h77.94V49.28c0-1.16.77-2.18,1.89-2.49,1.11-.31,2.3.15,2.91,1.14l10.17,16.67,22.84-12.54c-2.46-5.14-8.72-17.98-12.67-24.18-.42-.66-.84-1.33-1.27-2-4.61-7.32-8.97-14.23-17.16-17.52l-18.16-2.91c-2.46,5.26-10.49,18.89-27.52,18.89s-25.07-13.63-27.53-18.89l-18.16,2.91c-9.14,3.65-13.65,10.73-18.41,18.21-3.98,6.25-10.33,20.11-12.73,25.46l22.9,12.57,10.17-16.67c.6-.99,1.79-1.46,2.91-1.14,1.12.31,1.89,1.33,1.89,2.49v97.29Z"/>
    <path d="M82.75,24.35c-21.01,0-28.32-20.72-28.39-20.93-.31-.92-.08-1.95.6-2.64.68-.7,1.7-.95,2.63-.66,8.35,2.66,16.81,4.01,25.16,4.01S99.55,2.78,107.9.12c.93-.3,1.95-.04,2.63.66.68.7.92,1.72.6,2.64-.07.21-7.38,20.93-28.38,20.93M61.66,6.65c3.14,5.16,9.63,12.52,21.09,12.52s17.94-7.36,21.08-12.52c-7.02,1.76-14.09,2.65-21.09,2.65s-14.07-.89-21.09-2.65"/>
  </g>
</svg>