<?xml version="1.0" encoding="UTF-8"?>
<svg id="_레이어_2" data-name="레이어 2" xmlns="http://www.w3.org/2000/svg" xmlns:xlink="http://www.w3.org/1999/xlink" viewBox="0 0 167.67 112.1">
  <defs>
    <style>
      .cls-1 {
        fill: none;
      }

      .cls-2 {
        fill: #434a54;
      }

      .cls-3 {
        fill: #fdb0e2;
      }

      .cls-4 {
        opacity: .1;
      }

      .cls-5 {
        clip-path: url(#clippath);
      }
    </style>
    <clipPath id="clippath">
      <rect class="cls-1" x="6.26" y="3.16" width="161.41" height="106.05"/>
    </clipPath>
  </defs>
  <g id="_레이어_1-2" data-name="레이어 1">
    <path class="cls-3" d="M164.26,103.11c-.03.19-.06.37-.12.54-.11.36-.28.67-.52.91-2.26,2.3-4.88,3.03-7.73,2.92-.14,0-.27,0-.4-.02-.07,0-.15,0-.22-.01-.17-.01-.34-.03-.51-.05-.17-.02-.35-.04-.53-.07-.15-.02-.29-.04-.43-.07-.23-.04-.46-.08-.69-.12-.41-.08-.82-.17-1.23-.27-.29-.07-.57-.14-.86-.22-.23-.06-.47-.13-.71-.19,0,0-.02,0-.04-.02-.35-.1-.7-.21-1.06-.32-.18-.05-.35-.11-.54-.17-.35-.11-.71-.22-1.07-.35-1.98-.65-4.01-1.38-6.05-2-.35-.11-.69-.21-1.04-.31-.95-.27-1.91-.51-2.87-.7-.23-.05-.46-.09-.7-.13-.22-.04-.43-.07-.65-.11-1.82-.28-3.64-.34-5.43-.08-.72.11-1.43.23-2.11.38-.3.06-.59.12-.88.2-.32.07-.63.15-.93.23-.1.02-.2.05-.3.08-.1.02-.2.05-.3.08-.09.02-.19.05-.28.08-.43.12-.84.25-1.24.38-.19.06-.38.12-.56.18-1.54.51-2.97,1.09-4.34,1.66-.63.26-1.24.52-1.84.78-.93.4-1.85.79-2.76,1.14-.19.07-.38.15-.56.21-.43.17-.87.32-1.3.46-.26.09-.53.17-.8.25-.17.05-.33.1-.5.15-.46.13-.93.25-1.4.34-.62.12-1.24.22-1.88.28,0,0-.02,0-.03,0-1.14.1-2.3.08-3.53-.09-.25-.04-.49-.08-.75-.12-.56-.11-1.09-.23-1.61-.38-.49-.14-.97-.29-1.44-.46-.24-.09-.47-.17-.7-.27-.17-.07-.33-.13-.49-.2-.17-.07-.35-.15-.51-.23-.2-.09-.38-.17-.57-.27-.93-.46-1.83-.96-2.71-1.48-.22-.13-.44-.27-.66-.4-.68-.42-1.35-.84-2.03-1.27-.41-.26-.82-.51-1.23-.77-.21-.13-.41-.25-.62-.38-.21-.13-.42-.25-.63-.38-.03-.02-.06-.04-.1-.06-.39-.22-.79-.45-1.19-.67-.65-.35-1.32-.69-2.02-.99-.16-.08-.32-.15-.48-.21-.18-.08-.36-.15-.54-.22-.03-.02-.06-.03-.09-.04-.22-.09-.46-.17-.7-.25-.02-.01-.05-.02-.08-.03-.25-.09-.51-.17-.78-.25-.18-.06-.36-.12-.55-.16-.16-.05-.32-.09-.48-.13-.23-.07-.46-.12-.7-.17-.27-.07-.54-.12-.82-.17-.23-.04-.47-.08-.71-.12-.38-.06-.76-.1-1.15-.14-10.29-.95-22.11,8.14-28.2,7.13-.19-.03-.38-.06-.56-.1-.15-.04-.3-.07-.45-.1-.22-.05-.44-.11-.66-.17-.1-.03-.21-.06-.31-.09-.23-.06-.46-.14-.68-.22-.2-.07-.41-.14-.6-.22-.06-.02-.14-.05-.2-.08-.21-.08-.43-.17-.64-.26-1.43-.61-2.78-1.36-4.12-2.13-.32-.18-.64-.37-.95-.56-.82-.47-1.64-.95-2.46-1.4-.25-.14-.51-.28-.76-.41-1.04-.54-2.11-1.03-3.24-1.41-.17-.06-.35-.11-.53-.17-.24-.07-.48-.13-.72-.17-.65-.11-1.31-.09-1.98.03-.13.02-.26.05-.39.08-.33.07-.67.17-1,.28-.3.1-.61.22-.91.35-.17.07-.33.14-.49.22-.07.04-.15.06-.22.1-.16.07-.31.15-.47.23-.43.22-.87.46-1.32.7-.17.09-.35.19-.52.29-1.79,1.01-3.68,2.16-5.73,3.08-.21.09-.43.19-.64.28-.22.09-.43.18-.66.26-.19.07-.38.15-.58.21-.14.05-.28.1-.43.15-.19.06-.39.12-.59.17-.16.05-.32.09-.48.13-.17.04-.34.09-.52.12-.73.17-1.48.27-2.26.31-.25.01-.5.02-.75.02h-.28c-8.95-.19-12.93-3.43-12.76-8.17,0-.06.01-.12.03-.21.02-.08.05-.17.09-.28.01-.05.04-.11.06-.17,0-.02.02-.05.03-.07.04-.09.08-.2.12-.3.02-.04.04-.09.06-.13.04-.09.09-.2.14-.31.04-.08.08-.16.12-.25.08-.17.17-.34.26-.53.16-.31.33-.65.54-1.01,7.46-13.73,40.94-62.89,52.54-82.47,2.42-4.08,3.85-6.8,3.85-7.54,1.98-.09,3.94-.15,5.88-.19.38,0,.75-.02,1.12-.02,7.01-.09,14.46-1.55,20.59-.71.58.08,1.14.16,1.71.25,1.64.25,3.23.54,4.79.88.18.04.35.07.53.11,4.35.95,8.39,2.24,12.07,3.9h0c.37.65.78,1.33,1.21,2.04.22.36.44.72.67,1.1,1.67,2.71,3.71,5.87,6.02,9.35.47.72.96,1.46,1.47,2.22,1.1,1.65,2.25,3.37,3.45,5.13.35.54.72,1.08,1.09,1.62.74,1.09,1.48,2.21,2.24,3.33.68.99,1.37,2,2.06,3.02.09.14.18.27.27.4.62.92,1.25,1.84,1.88,2.77,1.07,1.58,2.15,3.17,3.24,4.78,5.52,8.14,11.18,16.59,16.24,24.52,1.93,3.03,3.77,5.97,5.48,8.8.22.36.44.72.65,1.07.94,1.58,1.85,3.11,2.69,4.59.19.34.39.68.59,1.02,1.12,1.99,2.15,3.88,3.06,5.66.34.67.67,1.32.98,1.95.02.05.05.1.07.15.28.59.55,1.15.8,1.7.41.88.77,1.73,1.09,2.53.12.29.22.56.33.83.01.04.03.08.04.12.09.25.18.48.26.72.07.22.15.43.22.65.02.06.04.13.06.19.1.31.19.6.26.88.05.19.1.37.14.55.02.05.03.1.04.16.04.17.08.33.11.5.04.18.07.35.09.51,0,.03.01.06.01.09.02.12.03.23.04.34,0,.09.02.17.02.25,0,.04,0,.08,0,.12,0,.12.01.23.01.34,0,.02,0,.05,0,.07,0,.03,0,.05,0,.08,0,.18-.01.34-.03.5,0,.05-.01.11-.02.16"/>
    <g class="cls-4">
      <g class="cls-5">
        <path class="cls-2" d="M167.67,102.37c0,.48-.05.91-.17,1.27-.11.36-.28.67-.52.91-2.26,2.3-4.88,3.03-7.73,2.92-.14,0-.27,0-.41-.02-.07,0-.15,0-.22-.02-.17-.01-.34-.03-.51-.05-.17-.02-.35-.04-.53-.06-.15-.02-.29-.04-.43-.07-.04,0-.07,0-.11-.01-.19-.04-.38-.07-.58-.11-.04,0-.09-.01-.14-.02-.25-.06-.51-.11-.77-.17-.1-.03-.21-.05-.32-.08-.29-.06-.57-.14-.86-.22-.07-.02-.15-.04-.22-.06-.16-.04-.33-.09-.49-.13,0,0-.02,0-.04-.02-.35-.1-.7-.21-1.06-.32-.18-.05-.35-.11-.54-.17-.35-.11-.72-.23-1.07-.35-1.98-.65-4.01-1.38-6.05-2-.35-.11-.7-.21-1.04-.31-.96-.27-1.91-.51-2.87-.7-.24-.05-.47-.09-.7-.13-.22-.04-.43-.08-.65-.11-1.82-.28-3.64-.34-5.43-.08-.72.11-1.43.23-2.11.38-.3.06-.59.12-.88.2-.32.07-.63.15-.93.23-.1.02-.2.05-.3.08-.04.01-.08.02-.12.04-.06,0-.12.02-.18.04-.09.02-.18.04-.28.08-.43.12-.84.25-1.24.38-.19.06-.38.12-.56.18-1.54.51-2.97,1.09-4.34,1.66-.3.13-.61.25-.91.38-.2.08-.41.17-.6.26-.12.04-.23.09-.34.13-.93.4-1.85.79-2.76,1.14-.19.07-.38.15-.56.21-.43.17-.87.32-1.3.46-.26.09-.53.17-.8.25-.17.05-.33.1-.5.14-.46.13-.93.25-1.4.34-.17.04-.35.07-.54.1-.13.02-.26.04-.39.06h0c-.1.02-.2.04-.3.05-.22.03-.43.05-.64.07,0,0-.02,0-.03,0-.56.05-1.14.07-1.72.06-.59-.01-1.19-.06-1.8-.15-.25-.04-.49-.08-.75-.12-.56-.11-1.09-.24-1.61-.38-.49-.14-.97-.29-1.44-.46-.24-.09-.47-.17-.7-.27-.17-.06-.33-.13-.49-.2-.17-.07-.35-.15-.51-.23-.2-.09-.38-.17-.57-.27-.93-.46-1.83-.96-2.71-1.48-.23-.13-.44-.27-.66-.4-.68-.42-1.35-.84-2.03-1.27-.41-.26-.82-.51-1.23-.77-.21-.13-.41-.25-.62-.38-.21-.13-.42-.25-.63-.38-.03-.02-.06-.04-.09-.06-.39-.22-.79-.45-1.2-.67-.65-.35-1.32-.68-2.02-.99-.16-.08-.32-.15-.48-.21-.18-.08-.36-.15-.54-.22-.03-.02-.07-.03-.09-.04-.22-.09-.46-.17-.69-.25-.02-.01-.05-.02-.08-.03-.25-.09-.51-.17-.78-.25-.18-.06-.36-.11-.55-.16-.16-.05-.32-.09-.48-.13-.23-.06-.46-.12-.7-.17-.27-.06-.54-.12-.82-.17-.23-.04-.47-.08-.71-.12-.38-.06-.76-.1-1.15-.14-10.29-.95-22.12,8.14-28.2,7.13-.19-.03-.38-.07-.56-.1-.15-.04-.3-.06-.45-.1-.22-.05-.44-.11-.66-.17-.1-.03-.21-.06-.31-.09-.23-.07-.46-.14-.68-.22-.2-.07-.41-.14-.6-.22-.07-.02-.14-.05-.2-.08-.21-.08-.43-.17-.64-.26-1.43-.61-2.78-1.36-4.12-2.14-.32-.18-.64-.37-.96-.56-.82-.47-1.64-.95-2.46-1.4-.25-.14-.51-.28-.76-.41-.86-.44-1.75-.84-2.66-1.19-.19-.07-.38-.16-.58-.23-.17-.06-.35-.11-.53-.17-.24-.07-.48-.13-.72-.17-.65-.11-1.31-.09-1.98.03-.13.02-.26.05-.39.08-.33.07-.67.17-1,.28-.3.1-.61.22-.91.36-.17.06-.33.14-.49.22-.07.04-.15.07-.22.1-.15.07-.31.15-.47.23-.43.22-.87.46-1.32.7-.17.09-.35.19-.52.29-1.79,1.01-3.69,2.16-5.73,3.08-.21.09-.43.19-.64.28-.22.09-.43.18-.66.26-.19.07-.38.15-.58.21-.15.05-.28.1-.43.14-.2.06-.39.12-.59.17-.16.05-.32.09-.48.13-.17.04-.34.09-.52.12-.73.17-1.48.28-2.26.31-.25.01-.5.02-.75.02h-.28c-8.95-.19-12.93-3.43-12.75-8.17,0-.06.01-.12.03-.21.02-.08.05-.17.09-.27.01-.05.04-.11.06-.17,0-.02.02-.05.03-.07.04-.09.08-.2.12-.3.02-.04.04-.09.06-.13.04-.09.09-.2.15-.31.04-.08.08-.16.12-.25.08-.17.17-.34.26-.53.16-.31.33-.65.54-1.01.05-.08.09-.17.14-.25,1.9,2.14,5.56,3.45,11.16,3.56,8.95.19,15.24-8.61,20.95-6.84.44.14.88.29,1.3.46,7.07,3.39,20.83-54,28.71-87.13.38,0,.75-.01,1.12-.01-6.67,34.43-22.78,92.97-15.72,93.87.25.05.49.1.75.15,6.09,1.01,17.92-8.09,28.2-7.14,10.28.96,14.66,8.37,23.61,10.08.45.09.89.15,1.32.19-5.86-14.64-13.91-64.43-17.57-97.85.58.08,1.14.16,1.71.25,5.39,33.31,13.63,83.07,28.42,94.64,3.53-1.51,7.43-3.14,12.4-3.88,7.63-1.12,15.84,3.82,22.9,4.97-5.15-18.08-45.21-71.59-56.32-90.84h0c-.88-1.53-1.58-2.84-2.07-3.9,4.35.95,8.39,2.24,12.07,3.9h0c.37.65.78,1.32,1.21,2.04.22.35.44.72.67,1.1,1.67,2.71,3.71,5.87,6.02,9.35.47.72.96,1.46,1.47,2.22,1.1,1.65,2.25,3.37,3.45,5.13.35.54.72,1.07,1.09,1.62.74,1.09,1.48,2.21,2.24,3.33.68,1,1.36,2.01,2.05,3.02.09.14.18.27.27.4.62.92,1.24,1.84,1.88,2.77,1.07,1.58,2.15,3.17,3.24,4.78,5.51,8.14,11.18,16.59,16.24,24.52,1.93,3.03,3.77,5.97,5.48,8.8.22.36.43.72.65,1.07.94,1.58,1.85,3.11,2.69,4.59.2.34.39.68.59,1.02,1.12,1.99,2.15,3.88,3.06,5.66.34.67.67,1.32.98,1.95.02.05.05.1.07.15.28.59.55,1.15.8,1.7.41.88.77,1.73,1.09,2.53.12.29.22.56.33.83.02.04.03.08.04.12.09.25.17.48.26.72.07.22.15.43.22.65.02.07.04.13.06.2.1.31.19.6.26.88.05.19.1.37.14.55.02.05.03.1.04.16.04.17.08.33.11.5.03.17.07.35.09.51,0,.03.02.06.02.09s0,.06,0,.09c0,.09.02.17.03.25,0,.09.02.17.02.25.02.18.02.35.02.53"/>
      </g>
    </g>
    <path d="M107.5,112.1c-.85,0-1.72-.06-2.57-.18-.25-.04-.48-.08-.71-.12l-.12-.02c-.76-.15-1.37-.29-1.93-.46-.56-.16-1.1-.33-1.63-.53-.27-.1-.54-.2-.81-.31-.15-.06-.34-.13-.53-.22-.19-.08-.39-.17-.57-.26-.22-.1-.44-.2-.65-.31-.9-.44-1.85-.96-2.89-1.58-.13-.08-.28-.17-.43-.26l-.23-.14c-.72-.44-1.4-.87-2.08-1.3-.41-.26-.8-.5-1.19-.74-.21-.13-.4-.24-.58-.35-.02-.01-.04-.03-.06-.04-.19-.12-.38-.23-.57-.34-.04-.02-.07-.04-.1-.06,0,0-.01,0-.01,0-.32-.18-.69-.39-1.07-.6-.62-.33-1.22-.63-1.81-.89-.05-.02-.09-.04-.13-.06-.08-.04-.16-.07-.25-.1-.04-.02-.07-.03-.11-.05-.15-.07-.3-.13-.45-.19,0,0,0,0,0,0-.02,0-.04-.02-.06-.02-.18-.07-.37-.14-.56-.21-.04-.01-.08-.03-.12-.04-.02,0-.04-.01-.05-.02-.19-.07-.39-.13-.6-.19-.16-.05-.27-.09-.37-.11-.08-.02-.16-.04-.23-.06-.07-.02-.15-.04-.22-.06-.06-.01-.11-.03-.16-.04-.15-.04-.29-.08-.44-.11-.06-.01-.11-.02-.17-.04-.21-.05-.43-.09-.65-.13-.21-.04-.41-.07-.61-.1-.35-.05-.68-.09-1.01-.12-.41-.04-.84-.06-1.28-.06-4.63,0-9.85,2.14-14.47,4.03-4.26,1.74-7.95,3.25-11.18,3.25h0c-.52,0-1.02-.04-1.49-.12-.19-.03-.41-.07-.64-.11-.04,0-.08-.02-.12-.03l-.15-.03c-.11-.02-.22-.05-.33-.07-.19-.04-.43-.11-.67-.17-.02,0-.07-.02-.09-.02-.14-.04-.26-.08-.37-.11-.27-.08-.53-.16-.79-.25l-.16-.06c-.17-.06-.33-.12-.49-.18-.09-.03-.18-.07-.27-.11-.24-.09-.49-.19-.73-.3-1.44-.61-2.8-1.35-4.39-2.27-.31-.18-.65-.38-.98-.57l-.42-.24c-.65-.37-1.3-.75-1.95-1.1-.23-.13-.47-.25-.7-.37-1.03-.54-1.96-.94-2.85-1.25l-.47-.16c-.08-.02-.18-.05-.27-.06-.4-.07-.67-.05-1.06.02-.1.01-.17.03-.25.05-.24.05-.52.14-.73.21-.22.07-.44.17-.67.26-.03.01-.05.02-.08.03-.1.04-.2.08-.3.13-.05.02-.14.06-.23.1-.14.06-.22.1-.3.15l-.12.06c-.39.2-.78.41-1.18.63-.2.11-.35.19-.5.28l-1.02.58c-1.57.9-3.19,1.83-4.99,2.63-.23.1-.47.21-.71.31-.22.1-.49.2-.76.3-.22.08-.44.17-.67.24l-.04.02c-.16.05-.31.11-.47.16l-.15.05c-.16.05-.31.1-.47.14-.2.06-.4.11-.6.16-.21.05-.42.1-.64.14-.89.2-1.8.32-2.68.36-.27.02-.58.02-.88.02h-.28c-6.15-.13-10.55-1.59-13.15-4.34C.78,102.24-.08,99.89,0,97.26c0-.26.04-.47.06-.59.02-.08.04-.22.06-.3.04-.13.08-.28.14-.43.03-.08.06-.16.09-.25.01-.03.03-.09.05-.13l.13-.32c.02-.05.04-.1.06-.15.02-.04.04-.08.05-.12l.15-.33c.03-.06.08-.16.13-.26.09-.19.19-.38.29-.58.19-.36.38-.73.6-1.13,3.98-7.32,14.99-24.17,26.65-42,10.07-15.41,20.49-31.35,25.93-40.53,2.72-4.6,3.33-6.02,3.47-6.41.17-1.39,1.31-2.48,2.74-2.55,1.86-.09,3.81-.15,5.96-.19.39,0,.79-.02,1.18-.02,2.52-.03,5.22-.26,7.83-.48,2.82-.24,5.74-.49,8.51-.49,1.72,0,3.24.09,4.65.29.6.08,1.18.16,1.76.25,1.73.27,3.4.57,4.96.91.17.03.38.08.58.13,4.57,1,8.79,2.36,12.54,4.05.58.24,1.07.67,1.39,1.23.36.63.75,1.29,1.17,1.98.17.29.34.57.52.85l.14.23c1.55,2.53,3.5,5.56,5.96,9.26.48.74.96,1.46,1.46,2.2,1.1,1.66,2.25,3.37,3.44,5.13.35.53.7,1.04,1.05,1.56,0,0,.04.06.04.07l2.24,3.33c.68.98,1.37,2,2.06,3.03.02.02.03.05.05.07.03.06.07.11.11.16l.88,1.3c.37.54.74,1.09,1.11,1.64,1.07,1.57,2.15,3.17,3.24,4.78,4.74,6.99,10.88,16.11,16.28,24.58,2,3.13,3.85,6.11,5.52,8.85.22.36.43.71.64,1.06,1.05,1.77,1.91,3.22,2.74,4.67l.58,1.01c1.23,2.18,2.25,4.07,3.13,5.78.35.68.68,1.34,1,1.98.01.03.02.05.04.08.02.05.04.09.06.14.29.6.56,1.18.81,1.74.4.86.78,1.76,1.13,2.63.12.31.24.6.34.88.01.04.03.07.04.11v.02c.11.28.21.55.3.82l.22.65c.03.08.05.16.07.24.11.35.22.69.3,1.03.06.22.11.4.15.58.02.07.04.15.06.24.05.19.09.38.12.57.04.19.07.37.09.54.02.09.03.2.04.31.02.13.03.25.04.37.02.15.03.28.03.41,0,.03,0,.05,0,.07,0,.15.02.28.02.4,0,.05,0,.11,0,.15,0,.07,0,.13,0,.19,0,.24-.02.48-.05.71-.01.1-.02.17-.03.24-.06.39-.13.71-.22,1-.24.8-.66,1.52-1.24,2.1-2.59,2.64-5.94,3.92-9.84,3.76-.18,0-.35-.01-.52-.03-.1,0-.2-.01-.31-.02-.18-.02-.39-.03-.6-.06l-.52-.06s-.05,0-.08-.01l-.44-.07c-.23-.04-.45-.08-.68-.12l-.09-.02c-.47-.09-.93-.19-1.39-.3-.28-.06-.61-.15-.94-.24l-.7-.19c-.06-.02-.13-.04-.19-.06-.3-.09-.61-.18-.92-.28l-.07-.02c-.11-.03-.29-.09-.47-.15l-.1-.03c-.35-.11-.73-.23-1.12-.36-.68-.22-1.38-.46-2.1-.7-1.27-.43-2.58-.88-3.86-1.26-.35-.11-.66-.2-.98-.29-.97-.27-1.85-.49-2.68-.66-.21-.04-.38-.08-.55-.1-.05,0-.09-.02-.14-.02-.1-.02-.21-.04-.31-.05l-.24-.04c-1.6-.24-3.16-.27-4.54-.07-.72.11-1.35.22-1.93.34-.29.06-.53.11-.77.17-.35.08-.63.15-.9.22-.04.01-.09.02-.13.03-.08.03-.21.06-.3.08-.06.02-.18.05-.24.07-.05.02-.12.04-.17.05-.39.1-.76.22-1.12.34l-.57.18c-1.52.51-2.99,1.11-4.1,1.57l-1.85.78c-.94.4-1.89.8-2.81,1.17-.25.09-.45.17-.64.24-.42.16-.89.33-1.37.49-.25.09-.57.19-.89.28-.2.06-.4.12-.59.17-.51.14-1.05.27-1.57.38-.71.14-1.43.25-2.15.32-.06,0-.11,0-.17.01-.5.04-1.01.06-1.51.06M93.5,100.35c.22.13.43.26.66.4.43.26.85.52,1.27.79.65.41,1.31.82,1.99,1.24l.25.15c.11.07.23.14.35.21.93.55,1.75,1,2.52,1.38.17.09.32.16.48.22.02.01.05.02.07.03.12.06.25.12.38.17.03.01.06.02.09.04.11.05.22.09.34.14.02,0,.05.02.07.03.18.08.37.15.56.21.4.15.8.28,1.23.4.43.12.87.23,1.39.33h.06c.19.04.38.07.56.1.89.13,1.81.16,2.72.09.1-.01.19-.02.29-.03.48-.06.95-.13,1.43-.22.37-.07.77-.17,1.19-.29.17-.05.29-.08.41-.12.26-.08.47-.14.68-.21.46-.15.85-.29,1.25-.44.21-.08.37-.14.53-.2.89-.35,1.78-.73,2.69-1.11l.83-.35c.34-.15.69-.29,1.05-.44,1.19-.5,2.79-1.15,4.53-1.73l.63-.2c.4-.13.82-.26,1.27-.39.11-.03.22-.07.33-.1.1-.03.21-.06.32-.09.11-.03.23-.06.35-.09.32-.08.64-.16.98-.24.28-.07.62-.15.96-.21.65-.14,1.39-.27,2.24-.4,1.97-.29,4.05-.26,6.29.08l.23.04c.16.03.33.05.49.08.28.04.55.09.82.15.93.19,1.93.44,3.03.74.01,0,.06.02.07.02.35.1.7.2,1.06.32,1.34.41,2.7.87,4.02,1.31.69.24,1.38.47,2.07.7.36.12.69.23,1.02.33l.15.05c.11.03.21.07.32.1l.14.04c.32.1.64.19.95.29.04.01.07.02.11.03l.61.17c.23.06.47.13.72.18.42.1.79.18,1.15.25h.07c.17.05.34.08.51.11l.86.12c.14.02.27.03.4.04,0,0,.04,0,.06,0,.07,0,.14,0,.21.01.08,0,.15,0,.23,0,.15,0,.3,0,.45,0,2.05,0,3.58-.59,4.94-1.9,0,0,0,0,0,0,.01-.12.01-.2.02-.27,0-.02,0-.04,0-.06h0c0-.08,0-.14,0-.21,0-.03,0-.09,0-.14,0,0,0-.02,0-.03v-.14c-.02-.08-.03-.13-.03-.17,0-.04-.02-.09-.02-.13-.01-.1-.03-.2-.05-.32,0-.03-.01-.05-.02-.08-.01-.09-.03-.17-.06-.26-.02-.06-.03-.12-.04-.18-.01-.05-.02-.1-.03-.14-.02-.1-.05-.2-.08-.3,0,0-.02-.07-.02-.07-.07-.26-.14-.49-.22-.73-.02-.07-.05-.15-.07-.22l-.2-.61c-.07-.2-.14-.4-.22-.61-.01-.04-.03-.07-.04-.11v-.03c-.1-.25-.2-.5-.31-.77-.31-.79-.66-1.59-1.03-2.4-.25-.55-.5-1.09-.77-1.65,0-.02-.02-.04-.03-.06-.02-.04-.04-.07-.05-.11-.3-.61-.61-1.23-.94-1.87-.84-1.64-1.83-3.46-3.01-5.56l-.57-1c-.81-1.41-1.65-2.84-2.67-4.55-.2-.33-.42-.69-.65-1.06-1.63-2.7-3.47-5.64-5.44-8.73-5.37-8.42-11.48-17.49-16.2-24.45-1.09-1.61-2.16-3.2-3.24-4.78-.37-.55-.74-1.09-1.1-1.63l-.86-1.27c-.07-.1-.14-.2-.21-.31-.68-1-1.35-1.99-2.02-2.97l-2.26-3.35c-.4-.58-.76-1.12-1.11-1.64-1.18-1.75-2.34-3.47-3.44-5.12-.51-.76-1.01-1.51-1.49-2.24-2.48-3.73-4.47-6.82-6.06-9.41l-.14-.22c-.19-.3-.37-.6-.55-.9-.26-.43-.51-.85-.75-1.26-3.2-1.38-6.79-2.5-10.66-3.35-.03,0-.06-.01-.09-.02-.13-.03-.26-.06-.39-.09-1.49-.32-3.05-.6-4.67-.85-.55-.08-1.09-.16-1.66-.24-1.14-.16-2.4-.23-3.86-.23-2.52,0-5.19.23-8.02.47-2.71.23-5.52.47-8.28.5-.39,0-.74,0-1.1.01-1.36.03-2.64.06-3.87.11-.61,1.29-1.65,3.2-3.43,6.21-5.5,9.3-15.96,25.29-26.07,40.75-11.08,16.95-22.54,34.48-26.42,41.63-.2.36-.36.66-.5.94-.07.15-.15.3-.23.46l-.08.16s-.03.06-.03.07l-.13.29s-.02.05-.03.08l-.08.19s-.01.03-.02.04c.01.98.31,1.75.93,2.4,1.45,1.54,4.65,2.43,9,2.52h.22c.19,0,.39,0,.58-.02.61-.03,1.2-.11,1.79-.24.06-.01.12-.03.19-.04.09-.01.17-.04.25-.06.04-.01.08-.02.11-.03.08-.02.15-.04.23-.06.06-.02.11-.03.17-.05.09-.02.18-.05.26-.08l.21-.06c.06-.02.13-.04.19-.07l.11-.04c.19-.06.34-.12.49-.18.03-.01.05-.02.07-.03.16-.06.32-.12.48-.19.23-.09.41-.18.6-.26,1.54-.69,3.03-1.54,4.47-2.37l1.02-.58c.17-.1.37-.21.57-.32.49-.27.95-.52,1.4-.74l.1-.05c.14-.07.29-.14.43-.21.07-.03.14-.06.21-.09.22-.1.42-.2.64-.28.3-.13.68-.29,1.1-.43.36-.12.81-.26,1.3-.36.17-.04.35-.08.53-.11.99-.17,2-.18,2.93-.03.32.05.69.13,1.08.25l.6.2c1.19.41,2.38.92,3.66,1.59.26.13.53.28.8.43.7.38,1.39.78,2.08,1.18l.44.26c.34.2.64.38.94.55,1.43.82,2.61,1.47,3.82,1.99.2.09.37.16.53.22.05.02.1.04.15.06.06.02.07.02.12.05.09.04.18.07.28.1l.21.07c.16.06.32.11.49.16.07.02.13.04.2.06l.06.02c.21.06.39.1.57.15l.39.09c.14.03.28.06.42.08.19.03.37.05.57.04,2.09,0,5.44-1.37,8.99-2.82,5.11-2.09,10.9-4.46,16.66-4.46.61,0,1.22.03,1.81.08.45.04.89.09,1.32.16.29.04.55.08.8.13.29.05.6.11.9.18.27.05.54.12.8.19.19.04.37.09.55.15.22.05.43.12.64.19.26.08.53.16.8.26.07.02.15.05.23.08.21.07.41.15.6.22.09.03.19.07.28.11.17.07.34.14.51.21.2.08.4.16.6.26.73.32,1.46.68,2.18,1.08.41.22.84.46,1.25.7.07.04.13.07.18.11.2.12.4.23.59.36"/>
  </g>
</svg>