<?xml version="1.0" encoding="UTF-8"?>
<svg id="_레이어_2" data-name="레이어 2" xmlns="http://www.w3.org/2000/svg" viewBox="0 0 129.72 148.1">
  <defs>
    <style>
      .cls-1 {
        fill: none;
        stroke: #000;
        stroke-linecap: round;
        stroke-linejoin: round;
        stroke-width: 4px;
      }

      .cls-2 {
        fill: #e57e20;
      }
    </style>
  </defs>
  <g id="_레이어_1-2" data-name="레이어 1">
    <path class="cls-2" d="M2,15.75h38.22v66.55l32.9,32.9c7.07,7.07,7.07,18.52,0,25.59s-18.53,7.07-25.59,0L2.12,95.39l-.12-79.64Z"/>
    <path class="cls-1" d="M2,15.75h38.22v66.55l32.9,32.9c7.07,7.07,7.07,18.52,0,25.59s-18.53,7.07-25.59,0L2.12,95.39l-.12-79.64Z"/>
    <line class="cls-1" x1="40.23" y1="28.7" x2="2.02" y2="28.7"/>
    <path class="cls-2" d="M17.19,110.45c3.86-3.86,6.24-9.18,6.24-15.05,0-11.78-9.54-21.31-21.31-21.31h-.02"/>
    <path class="cls-1" d="M17.19,110.45c3.86-3.86,6.24-9.18,6.24-15.05,0-11.78-9.54-21.31-21.31-21.31h-.02"/>
    <line class="cls-2" x1="65.52" y1="107.6" x2="39.92" y2="133.2"/>
    <line class="cls-1" x1="65.52" y1="107.6" x2="39.92" y2="133.2"/>
    <path class="cls-2" d="M51.3,2h38.22v66.55l32.9,32.9c7.07,7.07,7.07,18.52,0,25.59s-18.53,7.07-25.59,0l-45.41-45.41-.12-79.64Z"/>
    <path class="cls-1" d="M51.3,2h38.22v66.55l32.9,32.9c7.07,7.07,7.07,18.52,0,25.59s-18.53,7.07-25.59,0l-45.41-45.41-.12-79.64Z"/>
    <line class="cls-1" x1="89.53" y1="14.95" x2="51.32" y2="14.95"/>
    <path class="cls-2" d="M66.49,96.7c3.86-3.86,6.24-9.18,6.24-15.05,0-11.78-9.54-21.31-21.31-21.31h-.02"/>
    <path class="cls-1" d="M66.49,96.7c3.86-3.86,6.24-9.18,6.24-15.05,0-11.78-9.54-21.31-21.31-21.31h-.02"/>
    <line class="cls-2" x1="114.82" y1="93.85" x2="89.22" y2="119.45"/>
    <line class="cls-1" x1="114.82" y1="93.85" x2="89.22" y2="119.45"/>
  </g>
</svg>