<?xml version="1.0" encoding="UTF-8"?>
<svg id="_레이어_2" data-name="레이어 2" xmlns="http://www.w3.org/2000/svg" xmlns:xlink="http://www.w3.org/1999/xlink" viewBox="0 0 165.49 90.01">
  <defs>
    <style>
      .cls-1 {
        fill: none;
      }

      .cls-2 {
        fill: #434a54;
      }

      .cls-3 {
        clip-path: url(#clippath-1);
      }

      .cls-4 {
        fill: #db5e4b;
      }

      .cls-5 {
        opacity: .2;
      }

      .cls-6 {
        clip-path: url(#clippath);
      }
    </style>
    <clipPath id="clippath">
      <rect class="cls-1" x="2.59" y="21.38" width="64.72" height="62.31"/>
    </clipPath>
    <clipPath id="clippath-1">
      <rect class="cls-1" x="97.51" y="23.25" width="65.4" height="60.44"/>
    </clipPath>
  </defs>
  <g id="_레이어_1-2" data-name="레이어 1">
    <path class="cls-4" d="M99.32,83.69c-11.05,4.98-22.1,4.98-33.16,0,1.18-7.7,1.48-14.87.73-21.41h30.99c-.8,6.38-.33,13.52,1.44,21.41"/>
    <path class="cls-4" d="M162.9,2.59v20.66c-39.53.9-61.91,14.16-65.02,39.03h-30.99c-2.84-24.75-20.85-40.43-64.31-40.89V2.59h160.32Z"/>
    <path class="cls-4" d="M66.17,83.69C42.25,69.59,20.45,50.31,2.59,21.38c43.46.46,61.47,16.14,64.31,40.89.76,6.54.45,13.72-.73,21.41"/>
    <path class="cls-4" d="M162.9,23.25c-15.29,26.78-36.72,46.66-63.58,60.44-1.77-7.89-2.24-15.04-1.44-21.41,3.11-24.86,25.49-38.13,65.02-39.03"/>
    <g class="cls-5">
      <g class="cls-6">
        <path class="cls-2" d="M66.17,83.69C42.25,69.59,20.45,50.31,2.59,21.38c43.46.46,61.47,16.14,64.31,40.89.76,6.54.45,13.72-.73,21.41"/>
      </g>
    </g>
    <g class="cls-5">
      <g class="cls-3">
        <path class="cls-2" d="M162.9,23.25c-15.29,26.78-36.72,46.66-63.58,60.44-1.77-7.89-2.24-15.04-1.44-21.41,3.11-24.86,25.49-38.13,65.02-39.03"/>
      </g>
    </g>
    <path d="M82.75,90.01c-5.87,0-11.81-1.33-17.64-3.96-1.06-.48-1.67-1.6-1.49-2.75,1.18-7.68,1.42-14.66.72-20.73-.08-.73.15-1.47.64-2.02.49-.55,1.19-.86,1.93-.86h30.99c.74,0,1.45.32,1.94.88.49.56.72,1.3.63,2.03-.77,6.08-.3,12.98,1.39,20.52.27,1.2-.34,2.42-1.46,2.92-5.83,2.63-11.77,3.97-17.64,3.97M69.01,82.09c4.58,1.83,9.19,2.75,13.74,2.75s9.07-.91,13.6-2.7c-1.23-6.17-1.66-11.96-1.31-17.28h-25.31c.36,5.25.12,11.02-.72,17.23"/>
    <path d="M97.89,64.86h-30.99c-1.31,0-2.42-.99-2.57-2.29-1.41-12.31-6.59-21.37-15.82-27.72-10.2-7.01-25.65-10.67-45.95-10.89-1.42-.01-2.56-1.17-2.56-2.58V2.58C0,1.16,1.16,0,2.59,0h160.32c1.43,0,2.59,1.16,2.59,2.58v20.66c0,1.41-1.12,2.55-2.53,2.58-19.25.44-34.36,3.85-44.9,10.16-10.25,6.13-16.17,15.08-17.62,26.6-.16,1.29-1.26,2.27-2.57,2.27M69.16,59.69h26.51c3.07-17.39,17.13-37.21,64.66-38.95V5.17H5.17v13.67c20.35.5,35.5,4.35,46.27,11.75,9.8,6.74,15.76,16.52,17.72,29.1"/>
    <path d="M66.17,86.27c-.45,0-.91-.12-1.31-.36C37.92,70.05,16.83,49.38.39,22.74c-.49-.8-.51-1.81-.05-2.63.46-.82,1.31-1.31,2.28-1.31,21.64.23,37.61,4.09,48.82,11.8,10.39,7.14,16.46,17.7,18.03,31.39.75,6.52.51,13.96-.74,22.1-.13.85-.67,1.58-1.45,1.94-.35.17-.73.25-1.11.25M7.36,24.09c14.9,22.87,33.53,41.04,56.77,55.36.71-6.17.78-11.83.2-16.87-1.41-12.31-6.59-21.37-15.82-27.72-9.38-6.44-23.2-10.06-41.15-10.77"/>
    <path d="M99.32,86.27c-.37,0-.75-.08-1.1-.24-.72-.34-1.25-.99-1.43-1.78-1.82-8.13-2.32-15.63-1.48-22.3,2.28-18.19,15.84-40.12,67.53-41.29.95,0,1.8.46,2.28,1.26.48.8.49,1.8.02,2.61-15.15,26.54-36.9,47.22-64.65,61.46-.37.19-.78.29-1.18.29M158.27,26c-17.03.85-30.54,4.21-40.2,9.99-10.25,6.13-16.17,15.08-17.62,26.6-.65,5.17-.41,10.95.72,17.2,23.99-12.95,43.17-31.02,57.1-53.79"/>
  </g>
</svg>